<?xml version="1.0" encoding="UTF-8"?>
<!DOCTYPE svg PUBLIC "-//W3C//DTD SVG 1.1//EN" "http://www.w3.org/Graphics/SVG/1.1/DTD/svg11.dtd">
<svg xmlns="http://www.w3.org/2000/svg" version="1.1" width="448px" height="466px" style="shape-rendering:geometricPrecision; text-rendering:geometricPrecision; image-rendering:optimizeQuality; fill-rule:evenodd; clip-rule:evenodd" xmlns:xlink="http://www.w3.org/1999/xlink">
<g><path style="opacity:1" fill="#fefffe" d="M 108.5,39.5 C 111.272,39.22 113.772,39.8866 116,41.5C 116.667,53.1667 116.667,64.8333 116,76.5C 112.714,80.4851 109.381,80.4851 106,76.5C 105.333,64.8333 105.333,53.1667 106,41.5C 106.995,40.9341 107.828,40.2674 108.5,39.5 Z"/></g>
<g><path style="opacity:1" fill="#fefffe" d="M 127.5,39.5 C 130.97,38.8748 133.804,39.8748 136,42.5C 136.667,53.5 136.667,64.5 136,75.5C 134.309,79.2127 131.475,80.3794 127.5,79C 126.107,77.8289 125.273,76.3289 125,74.5C 124.333,64.1667 124.333,53.8333 125,43.5C 125.662,42.0161 126.496,40.6828 127.5,39.5 Z"/></g>
<g><path style="opacity:1" fill="#fefffe" d="M 147.5,39.5 C 151.013,38.8757 153.847,39.8757 156,42.5C 156.667,53.5 156.667,64.5 156,75.5C 153.451,79.9255 150.118,80.5921 146,77.5C 145.833,71.3333 145.667,65.1667 145.5,59C 145.54,52.2613 146.207,45.7613 147.5,39.5 Z"/></g>
<g><path style="opacity:1" fill="#fefffe" d="M 167.5,39.5 C 170.272,39.22 172.772,39.8866 175,41.5C 175.667,53.1667 175.667,64.8333 175,76.5C 171.714,80.4851 168.381,80.4851 165,76.5C 164.333,65.1667 164.333,53.8333 165,42.5C 165.698,41.3094 166.531,40.3094 167.5,39.5 Z"/></g>
<g><path style="opacity:1" fill="#fefffe" d="M 186.5,39.5 C 189.97,38.8748 192.804,39.8748 195,42.5C 195.667,53.5 195.667,64.5 195,75.5C 193.309,79.2127 190.475,80.3794 186.5,79C 185.107,77.8289 184.273,76.3289 184,74.5C 183.333,64.1667 183.333,53.8333 184,43.5C 184.662,42.0161 185.496,40.6828 186.5,39.5 Z"/></g>
<g><path style="opacity:1" fill="#fefffe" d="M 206.5,39.5 C 209.365,39.0548 211.865,39.7215 214,41.5C 214.667,53.5 214.667,65.5 214,77.5C 210.381,80.3428 207.048,80.0095 204,76.5C 203.333,65.1667 203.333,53.8333 204,42.5C 204.698,41.3094 205.531,40.3094 206.5,39.5 Z"/></g>
<g><path style="opacity:1" fill="#fefffe" d="M 226.5,39.5 C 229.365,39.0548 231.865,39.7215 234,41.5C 234.667,53.5 234.667,65.5 234,77.5C 229.8,80.6604 226.467,79.9937 224,75.5C 223.333,64.5 223.333,53.5 224,42.5C 224.698,41.3094 225.531,40.3094 226.5,39.5 Z"/></g>
<g><path style="opacity:1" fill="#fefffe" d="M 245.5,39.5 C 249.013,38.8757 251.847,39.8757 254,42.5C 254.667,53.5 254.667,64.5 254,75.5C 251.451,79.9255 248.118,80.5921 244,77.5C 243.333,65.5 243.333,53.5 244,41.5C 244.717,40.9558 245.217,40.2891 245.5,39.5 Z"/></g>
<g><path style="opacity:1" fill="#fefffe" d="M 265.5,39.5 C 268.365,39.0548 270.865,39.7215 273,41.5C 273.667,53.1667 273.667,64.8333 273,76.5C 269.841,80.436 266.508,80.436 263,76.5C 262.333,65.1667 262.333,53.8333 263,42.5C 263.698,41.3094 264.531,40.3094 265.5,39.5 Z"/></g>
<g><path style="opacity:1" fill="#fefffe" d="M 284.5,39.5 C 287.685,39.0196 290.519,39.6863 293,41.5C 293.667,53.5 293.667,65.5 293,77.5C 290.421,79.3467 287.588,79.8467 284.5,79C 283.809,77.9326 283.309,76.7659 283,75.5C 282.333,64.5 282.333,53.5 283,42.5C 283.513,41.4734 284.013,40.4734 284.5,39.5 Z"/></g>
<g><path style="opacity:1" fill="#fefffe" d="M 305.5,39.5 C 308.695,38.9607 311.195,39.9607 313,42.5C 313.667,53.8333 313.667,65.1667 313,76.5C 310.029,80.0917 306.696,80.4251 303,77.5C 302.333,65.5 302.333,53.5 303,41.5C 303.995,40.9341 304.828,40.2674 305.5,39.5 Z"/></g>
<g><path style="opacity:1" fill="#fefffe" d="M 324.5,39.5 C 327.272,39.22 329.772,39.8866 332,41.5C 332.667,53.1667 332.667,64.8333 332,76.5C 328.714,80.4851 325.381,80.4851 322,76.5C 321.333,65.1667 321.333,53.8333 322,42.5C 322.698,41.3094 323.531,40.3094 324.5,39.5 Z"/></g>
<g><path style="opacity:1" fill="#fefffe" d="M 73.5,83.5 C 165.834,83.3333 258.167,83.5 350.5,84C 356.352,89.1879 361.519,95.0213 366,101.5C 366.5,192.833 366.667,284.166 366.5,375.5C 268.833,375.5 171.167,375.5 73.5,375.5C 73.5,278.167 73.5,180.833 73.5,83.5 Z M 85.5,94.5 C 171.834,94.3333 258.167,94.5 344.5,95C 348.043,97.842 351.21,101.009 354,104.5C 354.5,191.166 354.667,277.833 354.5,364.5C 264.833,364.5 175.167,364.5 85.5,364.5C 85.5,274.5 85.5,184.5 85.5,94.5 Z M 322.5,111.5 C 334.13,110.803 337.964,115.803 334,126.5C 328.058,131.871 322.724,131.205 318,124.5C 317.333,121.833 317.333,119.167 318,116.5C 319.707,114.963 321.207,113.296 322.5,111.5 Z"/></g>
<g><path style="opacity:1" fill="#fefffe" d="M 323.5,99.5 C 337.743,99.4114 345.743,106.411 347.5,120.5C 344.97,136.608 335.637,143.108 319.5,140C 306.67,133.181 303.17,123.014 309,109.5C 312.689,104.28 317.522,100.947 323.5,99.5 Z M 322.5,111.5 C 321.207,113.296 319.707,114.963 318,116.5C 317.333,119.167 317.333,121.833 318,124.5C 322.724,131.205 328.058,131.871 334,126.5C 337.964,115.803 334.13,110.803 322.5,111.5 Z"/></g>
<g><path style="opacity:1" fill="#fefffe" d="M 33.5,114.5 C 44.505,114.333 55.505,114.5 66.5,115C 70.9937,117.467 71.6604,120.8 68.5,125C 56.1667,125.667 43.8333,125.667 31.5,125C 30.3895,122.263 30.2228,119.429 31,116.5C 31.9947,115.934 32.828,115.267 33.5,114.5 Z"/></g>
<g><path style="opacity:1" fill="#fefffe" d="M 373.5,114.5 C 384.505,114.333 395.505,114.5 406.5,115C 407.416,115.374 408.25,115.874 409,116.5C 409.667,119.167 409.667,121.833 409,124.5C 396.576,125.655 384.076,125.821 371.5,125C 368.402,120.658 369.069,117.158 373.5,114.5 Z"/></g>
<g><path style="opacity:1" fill="#fefffe" d="M 31.5,135.5 C 43.8378,135.333 56.1712,135.5 68.5,136C 71.5921,140.118 70.9255,143.451 66.5,146C 55.5,146.667 44.5,146.667 33.5,146C 30.3847,143.049 29.718,139.549 31.5,135.5 Z"/></g>
<g><path style="opacity:1" fill="#fefffe" d="M 371.5,135.5 C 383.838,135.333 396.171,135.5 408.5,136C 409.602,138.401 409.769,140.901 409,143.5C 408.5,144.667 407.667,145.5 406.5,146C 395.5,146.667 384.5,146.667 373.5,146C 369.018,143.278 368.351,139.778 371.5,135.5 Z"/></g>
<g><path style="opacity:1" fill="#fefffe" d="M 32.5,154.5 C 44.1714,154.333 55.8381,154.5 67.5,155C 71.4851,158.381 71.4851,161.714 67.5,165C 55.8333,165.667 44.1667,165.667 32.5,165C 29.8805,161.502 29.8805,158.002 32.5,154.5 Z"/></g>
<g><path style="opacity:1" fill="#fefffe" d="M 372.5,154.5 C 384.171,154.333 395.838,154.5 407.5,155C 410.167,158.333 410.167,161.667 407.5,165C 395.5,165.667 383.5,165.667 371.5,165C 368.64,161.151 368.973,157.651 372.5,154.5 Z"/></g>
<g><path style="opacity:1" fill="#fefffe" d="M 32.5,174.5 C 44.1714,174.333 55.8381,174.5 67.5,175C 70.7778,177.288 71.2778,180.121 69,183.5C 67.9326,184.191 66.7659,184.691 65.5,185C 54.8333,185.667 44.1667,185.667 33.5,185C 31.0456,184.057 30.0456,182.224 30.5,179.5C 30.7245,177.545 31.3911,175.879 32.5,174.5 Z"/></g>
<g><path style="opacity:1" fill="#fefffe" d="M 371.5,174.5 C 383.505,174.333 395.505,174.5 407.5,175C 409.487,177.47 409.987,180.303 409,183.5C 408.25,184.126 407.416,184.626 406.5,185C 395.5,185.667 384.5,185.667 373.5,185C 369.108,182.259 368.442,178.759 371.5,174.5 Z"/></g>
<g><path style="opacity:1" fill="#fefffe" d="M 31.5,194.5 C 43.8378,194.333 56.1712,194.5 68.5,195C 71.3428,198.619 71.0095,201.952 67.5,205C 56.1667,205.667 44.8333,205.667 33.5,205C 32.5838,204.626 31.7504,204.126 31,203.5C 30.2642,200.408 30.4309,197.408 31.5,194.5 Z"/></g>
<g><path style="opacity:1" fill="#fefffe" d="M 371.5,194.5 C 383.838,194.333 396.171,194.5 408.5,195C 409.61,197.737 409.777,200.571 409,203.5C 408.25,204.126 407.416,204.626 406.5,205C 395.167,205.667 383.833,205.667 372.5,205C 368.935,201.784 368.602,198.284 371.5,194.5 Z"/></g>
<g><path style="opacity:1" fill="#fefffe" d="M 33.5,213.5 C 44.505,213.333 55.505,213.5 66.5,214C 71.4077,216.873 71.741,220.206 67.5,224C 55.8333,224.667 44.1667,224.667 32.5,224C 29.6149,220.056 29.9483,216.556 33.5,213.5 Z"/></g>
<g><path style="opacity:1" fill="#fefffe" d="M 373.5,213.5 C 384.505,213.333 395.505,213.5 406.5,214C 407.416,214.374 408.25,214.874 409,215.5C 409.978,218.669 409.478,221.503 407.5,224C 395.5,224.667 383.5,224.667 371.5,224C 368.402,219.658 369.069,216.158 373.5,213.5 Z"/></g>
<g><path style="opacity:1" fill="#fefffe" d="M 32.5,233.5 C 44.1714,233.333 55.8381,233.5 67.5,234C 71.741,237.794 71.4077,241.127 66.5,244C 55.1667,244.667 43.8333,244.667 32.5,244C 29.8673,240.466 29.8673,236.966 32.5,233.5 Z"/></g>
<g><path style="opacity:1" fill="#fefffe" d="M 371.5,233.5 C 383.505,233.333 395.505,233.5 407.5,234C 410.091,237.297 410.091,240.631 407.5,244C 395.833,244.667 384.167,244.667 372.5,244C 368.842,240.862 368.509,237.362 371.5,233.5 Z"/></g>
<g><path style="opacity:1" fill="#fefffe" d="M 31.5,253.5 C 43.8378,253.333 56.1712,253.5 68.5,254C 71.3428,257.619 71.0095,260.952 67.5,264C 56.1667,264.667 44.8333,264.667 33.5,264C 32.5838,263.626 31.7504,263.126 31,262.5C 30.2642,259.408 30.4309,256.408 31.5,253.5 Z"/></g>
<g><path style="opacity:1" fill="#fefffe" d="M 371.5,253.5 C 383.838,253.333 396.171,253.5 408.5,254C 409.61,256.737 409.777,259.571 409,262.5C 408.25,263.126 407.416,263.626 406.5,264C 395.167,264.667 383.833,264.667 372.5,264C 368.935,260.784 368.602,257.284 371.5,253.5 Z"/></g>
<g><path style="opacity:1" fill="#fefffe" d="M 33.5,272.5 C 44.505,272.333 55.505,272.5 66.5,273C 70.9937,275.467 71.6604,278.8 68.5,283C 56.1667,283.667 43.8333,283.667 31.5,283C 30.3895,280.263 30.2228,277.429 31,274.5C 31.9947,273.934 32.828,273.267 33.5,272.5 Z"/></g>
<g><path style="opacity:1" fill="#fefffe" d="M 373.5,272.5 C 384.505,272.333 395.505,272.5 406.5,273C 407.416,273.374 408.25,273.874 409,274.5C 409.667,277.167 409.667,279.833 409,282.5C 396.576,283.655 384.076,283.821 371.5,283C 368.402,278.658 369.069,275.158 373.5,272.5 Z"/></g>
<g><path style="opacity:1" fill="#fefffe" d="M 32.5,292.5 C 44.1714,292.333 55.8381,292.5 67.5,293C 71.741,296.794 71.4077,300.127 66.5,303C 55.1667,303.667 43.8333,303.667 32.5,303C 29.8673,299.466 29.8673,295.966 32.5,292.5 Z"/></g>
<g><path style="opacity:1" fill="#fefffe" d="M 371.5,292.5 C 383.505,292.333 395.505,292.5 407.5,293C 410.091,296.297 410.091,299.631 407.5,303C 395.833,303.667 384.167,303.667 372.5,303C 368.842,299.862 368.509,296.362 371.5,292.5 Z"/></g>
<g><path style="opacity:1" fill="#fefffe" d="M 32.5,312.5 C 44.5046,312.333 56.5046,312.5 68.5,313C 71.3428,316.619 71.0095,319.952 67.5,323C 56.1667,323.667 44.8333,323.667 33.5,323C 31.0904,322.242 30.0904,320.575 30.5,318C 30.3948,315.822 31.0615,313.988 32.5,312.5 Z"/></g>
<g><path style="opacity:1" fill="#fefffe" d="M 371.5,312.5 C 383.838,312.333 396.171,312.5 408.5,313C 409.61,315.737 409.777,318.571 409,321.5C 408.25,322.126 407.416,322.626 406.5,323C 395.167,323.667 383.833,323.667 372.5,323C 368.935,319.784 368.602,316.284 371.5,312.5 Z"/></g>
<g><path style="opacity:1" fill="#fefffe" d="M 33.5,331.5 C 44.505,331.333 55.505,331.5 66.5,332C 70.9937,334.467 71.6604,337.8 68.5,342C 56.1667,342.667 43.8333,342.667 31.5,342C 30.3895,339.263 30.2228,336.429 31,333.5C 31.9947,332.934 32.828,332.267 33.5,331.5 Z"/></g>
<g><path style="opacity:1" fill="#fefffe" d="M 373.5,331.5 C 384.505,331.333 395.505,331.5 406.5,332C 407.416,332.374 408.25,332.874 409,333.5C 409.667,336.167 409.667,338.833 409,341.5C 396.576,342.655 384.076,342.821 371.5,342C 368.402,337.658 369.069,334.158 373.5,331.5 Z"/></g>
<g><path style="opacity:1" fill="#fefffe" d="M 109.5,379.5 C 112.961,379.146 115.461,380.479 117,383.5C 117.667,394.5 117.667,405.5 117,416.5C 114.79,419.29 111.956,420.123 108.5,419C 107.107,417.829 106.273,416.329 106,414.5C 105.333,404.5 105.333,394.5 106,384.5C 106.257,382.093 107.424,380.427 109.5,379.5 Z"/></g>
<g><path style="opacity:1" fill="#fefffe" d="M 128.5,379.5 C 131.652,378.959 134.152,379.959 136,382.5C 136.667,394.167 136.667,405.833 136,417.5C 132.667,420.167 129.333,420.167 126,417.5C 125.333,405.833 125.333,394.167 126,382.5C 127.045,381.627 127.878,380.627 128.5,379.5 Z"/></g>
<g><path style="opacity:1" fill="#fefffe" d="M 148.5,379.5 C 151.652,378.959 154.152,379.959 156,382.5C 156.667,394.167 156.667,405.833 156,417.5C 152.667,420.167 149.333,420.167 146,417.5C 145.333,405.5 145.333,393.5 146,381.5C 146.995,380.934 147.828,380.267 148.5,379.5 Z"/></g>
<g><path style="opacity:1" fill="#fefffe" d="M 168.5,379.5 C 171.961,379.146 174.461,380.479 176,383.5C 176.667,394.5 176.667,405.5 176,416.5C 172.952,420.01 169.619,420.343 166,417.5C 165.333,405.5 165.333,393.5 166,381.5C 166.995,380.934 167.828,380.267 168.5,379.5 Z"/></g>
<g><path style="opacity:1" fill="#fefffe" d="M 187.5,379.5 C 190.652,378.959 193.152,379.959 195,382.5C 195.667,394.167 195.667,405.833 195,417.5C 191.667,420.167 188.333,420.167 185,417.5C 184.333,405.833 184.333,394.167 185,382.5C 186.045,381.627 186.878,380.627 187.5,379.5 Z"/></g>
<g><path style="opacity:1" fill="#fefffe" d="M 207.5,379.5 C 211.757,378.597 214.257,380.264 215,384.5C 215.909,395.892 215.576,407.225 214,418.5C 209.659,420.51 206.325,419.51 204,415.5C 203.333,404.833 203.333,394.167 204,383.5C 204.69,381.65 205.856,380.316 207.5,379.5 Z"/></g>
<g><path style="opacity:1" fill="#fefffe" d="M 226.5,379.5 C 230.355,378.845 233.188,380.179 235,383.5C 235.667,394.5 235.667,405.5 235,416.5C 231.952,420.01 228.619,420.343 225,417.5C 224.333,405.5 224.333,393.5 225,381.5C 225.717,380.956 226.217,380.289 226.5,379.5 Z"/></g>
<g><path style="opacity:1" fill="#fefffe" d="M 246.5,379.5 C 249.695,378.961 252.195,379.961 254,382.5C 254.667,394.167 254.667,405.833 254,417.5C 250.738,420.077 247.405,420.077 244,417.5C 243.333,405.833 243.333,394.167 244,382.5C 245.045,381.627 245.878,380.627 246.5,379.5 Z"/></g>
<g><path style="opacity:1" fill="#fefffe" d="M 266.5,379.5 C 270.182,378.725 272.682,380.059 274,383.5C 274.667,394.167 274.667,404.833 274,415.5C 272.309,419.213 269.475,420.379 265.5,419C 264.299,418.097 263.465,416.931 263,415.5C 262.333,404.833 262.333,394.167 263,383.5C 263.69,381.65 264.856,380.316 266.5,379.5 Z"/></g>
<g><path style="opacity:1" fill="#fefffe" d="M 285.5,379.5 C 289.355,378.845 292.188,380.179 294,383.5C 294.667,394.5 294.667,405.5 294,416.5C 291.177,419.571 287.844,420.238 284,418.5C 283.333,406.167 283.333,393.833 284,381.5C 284.717,380.956 285.217,380.289 285.5,379.5 Z"/></g>
<g><path style="opacity:1" fill="#fefffe" d="M 305.5,379.5 C 308.695,378.961 311.195,379.961 313,382.5C 313.667,394.167 313.667,405.833 313,417.5C 309.667,420.167 306.333,420.167 303,417.5C 302.333,405.833 302.333,394.167 303,382.5C 304.045,381.627 304.878,380.627 305.5,379.5 Z"/></g>
<g><path style="opacity:1" fill="#fefffe" d="M 325.5,379.5 C 328.961,379.146 331.461,380.479 333,383.5C 333.667,394.5 333.667,405.5 333,416.5C 330.79,419.29 327.956,420.123 324.5,419C 323.107,417.829 322.273,416.329 322,414.5C 321.333,404.5 321.333,394.5 322,384.5C 322.257,382.093 323.424,380.427 325.5,379.5 Z"/></g>
</svg>
