<?xml version="1.0" encoding="UTF-8"?>
<!DOCTYPE svg PUBLIC "-//W3C//DTD SVG 1.1//EN" "http://www.w3.org/Graphics/SVG/1.1/DTD/svg11.dtd">
<svg xmlns="http://www.w3.org/2000/svg" version="1.1" width="372px" height="478px" style="shape-rendering:geometricPrecision; text-rendering:geometricPrecision; image-rendering:optimizeQuality; fill-rule:evenodd; clip-rule:evenodd" xmlns:xlink="http://www.w3.org/1999/xlink">
<g><path style="opacity:.4" fill="#ffffff" d="M 159.5,-0.5 C 171.167,-0.5 182.833,-0.5 194.5,-0.5C 194.833,0.833333 195.167,0.833333 195.5,-0.5C 196.167,-0.5 196.833,-0.5 197.5,-0.5C 204.358,1.26217 211.358,2.92883 218.5,4.5C 219.107,4.37642 219.44,4.04309 219.5,3.5C 226.263,6.53612 233.263,9.20279 240.5,11.5C 240.842,12.3382 241.508,12.6716 242.5,12.5C 243.93,13.5375 245.597,14.2041 247.5,14.5C 249.463,15.8202 251.463,17.1535 253.5,18.5C 253.703,20.0443 254.37,21.3777 255.5,22.5C 254.193,27.1403 251.193,30.1403 246.5,31.5C 243.423,29.295 240.09,27.6284 236.5,26.5C 234.11,24.9802 231.443,23.9802 228.5,23.5C 228.167,22.1667 227.833,22.1667 227.5,23.5C 218.609,19.3249 209.442,16.6582 200,15.5C 196.13,14.3946 192.297,14.3946 188.5,15.5C 185.024,14.2458 181.358,13.5791 177.5,13.5C 172.812,13.2873 168.312,13.9539 164,15.5C 158.189,14.9427 152.356,15.4427 146.5,17C 145.675,18.6883 144.675,18.8549 143.5,17.5C 137.859,19.0002 132.526,21.0002 127.5,23.5C 119.957,25.2714 113.29,28.6048 107.5,33.5C 105.302,33.4088 104.969,34.0755 106.5,35.5C 105.504,35.5858 104.671,35.2524 104,34.5C 102.035,36.5503 99.8682,38.217 97.5,39.5C 96.0937,39.9731 95.427,40.9731 95.5,42.5C 94.0755,40.9689 93.4088,41.3023 93.5,43.5C 91.847,43.6596 90.5137,44.3263 89.5,45.5C 88.8333,45.5 88.5,45.8333 88.5,46.5C 87.5,46.8333 86.8333,47.5 86.5,48.5C 85.1667,48.5 84.5,49.1667 84.5,50.5C 79.7368,54.0176 75.4034,58.0176 71.5,62.5C 70.6618,62.8417 70.3284,63.5084 70.5,64.5C 69.5,64.8333 68.8333,65.5 68.5,66.5C 67.8333,66.5 67.5,66.8333 67.5,67.5C 66.407,69.3492 65.0737,71.0158 63.5,72.5C 62.0256,73.4363 61.0256,74.7697 60.5,76.5C 58.6413,78.6258 56.9747,80.9591 55.5,83.5C 54.1667,83.8333 54.1667,84.1667 55.5,84.5C 52.0957,88.4651 49.429,92.4651 47.5,96.5C 46.6618,96.8417 46.3284,97.5084 46.5,98.5C 43.1113,104.11 40.1113,109.944 37.5,116C 33.8886,118.998 30.222,119.165 26.5,116.5C 25.1286,114.741 24.1286,112.741 23.5,110.5C 25.7058,105.921 28.0391,101.421 30.5,97C 29.7476,96.3292 29.4142,95.4959 29.5,94.5C 30.9245,96.0311 31.5912,95.6977 31.5,93.5C 32.6737,92.4863 33.3404,91.153 33.5,89.5C 38.1754,83.5976 42.5088,76.9309 46.5,69.5C 48.5475,67.4504 50.2141,65.117 51.5,62.5C 53.8044,59.8587 56.1377,57.192 58.5,54.5C 59.5,54.1667 60.1667,53.5 60.5,52.5C 62.2327,51.9924 62.566,51.159 61.5,50C 66.0017,46.3301 70.335,42.4968 74.5,38.5C 75.5,38.1667 76.1667,37.5 76.5,36.5C 78.5,35.1667 80.1667,33.5 81.5,31.5C 83.0269,31.573 84.0269,30.9063 84.5,29.5C 85.4916,29.6716 86.1583,29.3382 86.5,28.5C 88.8701,28.0175 89.5368,26.8508 88.5,25C 89.4491,24.3828 90.2825,24.5494 91,25.5C 91.9947,24.9341 92.828,24.2674 93.5,23.5C 96.1921,21.7944 98.8588,20.1278 101.5,18.5C 102.492,18.6716 103.158,18.3382 103.5,17.5C 104.239,17.631 104.906,17.4643 105.5,17C 104.66,15.3335 105.16,15.1669 107,16.5C 107.75,15.8742 108.584,15.3742 109.5,15C 108.66,13.3335 109.16,13.1669 111,14.5C 115.239,11.4798 119.739,9.14647 124.5,7.5C 136.084,4.05249 147.75,1.38582 159.5,-0.5 Z"/></g>
<g><path style="opacity:.4" fill="#fefffe" d="M 219.5,3.5 C 218.833,2.16667 218.833,2.16667 219.5,3.5 Z"/></g>
<g><path style="opacity:.4" fill="#fefffe" d="M 124.5,7.5 C 123.833,6.16667 123.833,6.16667 124.5,7.5 Z"/></g>
<g><path style="opacity:.4" fill="#fefffe" d="M 240.5,10.5 C 241.833,11.1667 241.833,11.1667 240.5,10.5 Z"/></g>
<g><path style="opacity:.4" fill="#fefffe" d="M 242.5,11.5 C 243.833,12.1667 243.833,12.1667 242.5,11.5 Z"/></g>
<g><path style="opacity:.4" fill="#fefffe" d="M 247.5,13.5 C 248.833,14.1667 248.833,14.1667 247.5,13.5 Z"/></g>
<g><path style="opacity:.4" fill="#fefffe" d="M 103.5,17.5 C 102.833,16.1667 102.833,16.1667 103.5,17.5 Z"/></g>
<g><path style="opacity:.4" fill="#fefffe" d="M 101.5,18.5 C 100.833,17.1667 100.833,17.1667 101.5,18.5 Z"/></g>
<g><path style="opacity:.4" fill="#fefffe" d="M 253.5,17.5 C 254.833,18.1667 254.833,18.1667 253.5,17.5 Z"/></g>
<g><path style="opacity:.4" fill="#fefffe" d="M 93.5,23.5 C 92.8333,22.1667 92.8333,22.1667 93.5,23.5 Z"/></g>
<g><path style="opacity:.4" fill="#fefffe" d="M 127.5,23.5 C 128.833,24.1667 128.833,24.1667 127.5,23.5 Z"/></g>
<g><path style="opacity:.4" fill="#fefffe" d="M 227.5,23.5 C 227.833,23.5 228.167,23.5 228.5,23.5C 228.315,24.1701 227.981,24.1701 227.5,23.5 Z"/></g>
<g><path style="opacity:.4" fill="#fefffe" d="M 194.5,27.5 C 196.876,30.356 198.21,33.6893 198.5,37.5C 195.632,40.2673 192.299,41.934 188.5,42.5C 184.476,41.6828 180.476,41.3494 176.5,41.5C 172.221,42.274 167.887,42.774 163.5,43C 157.17,43.7657 151.17,45.2657 145.5,47.5C 141.916,47.9754 138.583,48.9754 135.5,50.5C 130.711,51.26 126.544,53.26 123,56.5C 122.667,56.1667 122.333,55.8333 122,55.5C 119.317,57.0383 116.817,58.705 114.5,60.5C 111.63,61.4333 109.296,63.1 107.5,65.5C 103.54,67.4678 100.207,70.1345 97.5,73.5C 96.1667,73.5 95.5,74.1667 95.5,75.5C 92.8822,75.7792 90.3822,76.4459 88,77.5C 87.2798,75.9443 86.1132,74.9443 84.5,74.5C 83.7577,72.5742 82.7577,70.7409 81.5,69C 83.4087,65.9831 85.4087,63.1498 87.5,60.5C 89.7772,59.5514 91.7772,58.2181 93.5,56.5C 96.8529,52.7258 100.52,50.0591 104.5,48.5C 105.71,48.0679 106.71,47.4013 107.5,46.5C 108.492,46.6716 109.158,46.3382 109.5,45.5C 112.378,44.63 115.045,43.2967 117.5,41.5C 118.298,41.0431 118.631,40.3764 118.5,39.5C 119.15,39.8039 119.817,40.1373 120.5,40.5C 138.475,31.707 157.808,27.3736 178.5,27.5C 184,25.6257 189.334,25.6257 194.5,27.5 Z"/></g>
<g><path style="opacity:.4" fill="#fefffe" d="M 194.5,26.5 C 195.833,27.1667 195.833,27.1667 194.5,26.5 Z"/></g>
<g><path style="opacity:.4" fill="#fefffe" d="M 236.5,26.5 C 235.833,27.1667 235.833,27.1667 236.5,26.5 Z"/></g>
<g><path style="opacity:.4" fill="#fefffe" d="M 86.5,28.5 C 85.8333,27.1667 85.8333,27.1667 86.5,28.5 Z"/></g>
<g><path style="opacity:.4" fill="#fefffe" d="M 84.5,29.5 C 83.8333,28.1667 83.8333,28.1667 84.5,29.5 Z"/></g>
<g><path style="opacity:.4" fill="#fefffe" d="M 81.5,31.5 C 80.8333,30.1667 80.8333,30.1667 81.5,31.5 Z"/></g>
<g><path style="opacity:.4" fill="#fefffe" d="M 278.5,34.5 C 278.833,35.5 279.5,36.1667 280.5,36.5C 282.949,39.5558 285.949,41.8892 289.5,43.5C 289.328,44.4916 289.662,45.1583 290.5,45.5C 290.833,46.5 291.5,47.1667 292.5,47.5C 294.833,50.5 297.5,53.1667 300.5,55.5C 301.167,56.8333 302.167,57.8333 303.5,58.5C 305.168,60.34 306.668,62.34 308,64.5C 308.464,63.9056 308.631,63.2389 308.5,62.5C 310.642,66.7657 313.309,70.7657 316.5,74.5C 316.833,75.5 317.5,76.1667 318.5,76.5C 318.427,78.0269 319.094,79.0269 320.5,79.5C 321.705,82.0011 323.539,84.6677 326,87.5C 326.383,86.944 326.883,86.6107 327.5,86.5C 327.586,87.4959 327.252,88.3292 326.5,89C 329.285,91.9315 331.619,95.0982 333.5,98.5C 333.992,100.819 334.992,102.819 336.5,104.5C 336.328,105.492 336.662,106.158 337.5,106.5C 339.339,110.178 341.339,114.178 343.5,118.5C 345.842,123.87 348.175,129.204 350.5,134.5C 353.401,143.195 356.067,151.862 358.5,160.5C 363.574,179.799 367.074,199.466 369,219.5C 369.374,220.416 369.874,221.25 370.5,222C 370.565,227.382 368.232,231.215 363.5,233.5C 362.081,232.549 360.415,232.216 358.5,232.5C 356.73,230.887 355.564,228.887 355,226.5C 354.557,220.633 353.724,214.966 352.5,209.5C 350.987,193.728 347.987,178.395 343.5,163.5C 341.39,158.02 339.723,152.353 338.5,146.5C 337.871,143.603 336.871,140.936 335.5,138.5C 335.065,135.843 334.065,133.509 332.5,131.5C 332.607,129.097 331.607,127.264 329.5,126C 330.712,124.893 330.379,124.393 328.5,124.5C 328.923,122.219 328.256,120.552 326.5,119.5C 326.245,116.984 325.411,114.65 324,112.5C 322.343,109.836 320.51,107.336 318.5,105C 319.712,103.893 319.379,103.393 317.5,103.5C 318.815,102.105 318.481,101.105 316.5,100.5C 315.567,97.6298 313.9,95.2964 311.5,93.5C 310.241,89.9754 308.241,86.9754 305.5,84.5C 303.854,81.1898 301.52,78.5232 298.5,76.5C 296.547,72.8797 293.881,69.8797 290.5,67.5C 290.167,66.5 289.5,65.8333 288.5,65.5C 287.833,64.1667 286.833,63.1667 285.5,62.5C 284.738,60.7376 283.404,59.7376 281.5,59.5C 280.396,57.6115 279.063,55.9448 277.5,54.5C 276.833,53.1667 275.833,52.1667 274.5,51.5C 273.486,50.3263 272.153,49.6596 270.5,49.5C 269.92,47.2512 268.587,45.5846 266.5,44.5C 266.167,43.1667 265.833,43.1667 265.5,44.5C 263.014,43.5384 263.014,42.7051 265.5,42C 264.351,39.5408 264.351,37.0408 265.5,34.5C 270.313,30.7701 274.646,30.7701 278.5,34.5 Z"/></g>
<g><path style="opacity:.4" fill="#fefffe" d="M 226.5,36.5 C 227.93,37.5375 229.597,38.2041 231.5,38.5C 232.514,39.6737 233.847,40.3404 235.5,40.5C 237.181,42.0075 239.181,43.0075 241.5,43.5C 244.161,46.5023 247.495,48.5023 251.5,49.5C 252.262,51.2624 253.596,52.2624 255.5,52.5C 256.945,54.0627 258.611,55.396 260.5,56.5C 261.29,57.4013 262.29,58.0679 263.5,58.5C 263.833,59.5 264.5,60.1667 265.5,60.5C 271.158,63.7629 276.492,68.0962 281.5,73.5C 282.5,75.8333 284.167,77.5 286.5,78.5C 288.549,80.4497 289.883,82.4497 290.5,84.5C 291.167,85.8333 292.167,86.8333 293.5,87.5C 294.82,89.8171 296.486,91.8171 298.5,93.5C 298.738,95.4044 299.738,96.7377 301.5,97.5C 302.811,99.3358 303.978,101.336 305,103.5C 305.383,102.944 305.883,102.611 306.5,102.5C 306.343,103.873 306.51,105.207 307,106.5C 308.594,108.526 310.094,110.526 311.5,112.5C 312.11,114.434 313.11,116.101 314.5,117.5C 314.66,119.153 315.326,120.486 316.5,121.5C 317.853,124.205 319.186,126.872 320.5,129.5C 321.173,131.733 322.507,134.399 324.5,137.5C 324.992,139.819 325.992,141.819 327.5,143.5C 328.922,148.44 330.922,153.107 333.5,157.5C 332.957,157.56 332.624,157.893 332.5,158.5C 332.994,160.026 333.661,161.359 334.5,162.5C 337.937,173.193 341.27,184.193 344.5,195.5C 348.621,215.993 351.787,236.659 354,257.5C 355.001,277.735 356.168,297.902 357.5,318C 356.111,323.372 355.277,328.872 355,334.5C 353.362,336.734 351.195,338.067 348.5,338.5C 348.167,337.167 347.833,337.167 347.5,338.5C 342.306,336.068 339.973,331.901 340.5,326C 342.971,279.262 338.638,233.596 327.5,189C 325.422,182.255 323.089,175.755 320.5,169.5C 316.645,156.013 310.979,143.013 303.5,130.5C 303.672,129.508 303.338,128.842 302.5,128.5C 302.047,126.435 301.047,124.768 299.5,123.5C 299.672,122.508 299.338,121.842 298.5,121.5C 297.66,119.147 296.326,117.147 294.5,115.5C 293.551,113.223 292.218,111.223 290.5,109.5C 288.181,105.524 285.514,101.858 282.5,98.5C 282.167,97.5 281.5,96.8333 280.5,96.5C 280.167,95.5 279.5,94.8333 278.5,94.5C 276.234,90.5644 273.234,87.2311 269.5,84.5C 266.926,81.3467 263.926,78.6801 260.5,76.5C 260.027,75.0937 259.027,74.427 257.5,74.5C 257.106,72.2901 255.773,70.9568 253.5,70.5C 248.73,66.0714 243.396,62.4047 237.5,59.5C 230.763,54.7984 223.43,51.1317 215.5,48.5C 214.791,47.596 213.791,47.2627 212.5,47.5C 207.956,43.2285 207.956,38.7285 212.5,34C 213.5,33.5 214.5,33 215.5,32.5C 219.492,33.0906 223.159,34.4239 226.5,36.5 Z"/></g>
<g><path style="opacity:.4" fill="#fefffe" d="M 107.5,33.5 C 108.833,34.1667 108.833,34.1667 107.5,33.5 Z"/></g>
<g><path style="opacity:.4" fill="#fefffe" d="M 265.5,34.5 C 264.833,33.1667 264.833,33.1667 265.5,34.5 Z"/></g>
<g><path style="opacity:.4" fill="#fefffe" d="M 278.5,33.5 C 279.833,34.1667 279.833,34.1667 278.5,33.5 Z"/></g>
<g><path style="opacity:.4" fill="#fefffe" d="M 76.5,36.5 C 75.8333,35.1667 75.8333,35.1667 76.5,36.5 Z"/></g>
<g><path style="opacity:.4" fill="#fefffe" d="M 106.5,35.5 C 107.833,36.1667 107.833,36.1667 106.5,35.5 Z"/></g>
<g><path style="opacity:.4" fill="#fefffe" d="M 226.5,35.5 C 227.833,36.1667 227.833,36.1667 226.5,35.5 Z"/></g>
<g><path style="opacity:.4" fill="#fefffe" d="M 280.5,35.5 C 281.833,36.1667 281.833,36.1667 280.5,35.5 Z"/></g>
<g><path style="opacity:.4" fill="#fefffe" d="M 74.5,38.5 C 73.8333,37.1667 73.8333,37.1667 74.5,38.5 Z"/></g>
<g><path style="opacity:.4" fill="#fefffe" d="M 198.5,37.5 C 199.833,38.1667 199.833,38.1667 198.5,37.5 Z"/></g>
<g><path style="opacity:.4" fill="#fefffe" d="M 231.5,37.5 C 232.833,38.1667 232.833,38.1667 231.5,37.5 Z"/></g>
<g><path style="opacity:.4" fill="#fefffe" d="M 118.5,39.5 C 117.833,38.1667 117.833,38.1667 118.5,39.5 Z"/></g>
<g><path style="opacity:.4" fill="#fefffe" d="M 97.5,39.5 C 98.8333,40.1667 98.8333,40.1667 97.5,39.5 Z"/></g>
<g><path style="opacity:.4" fill="#fefffe" d="M 235.5,39.5 C 236.833,40.1667 236.833,40.1667 235.5,39.5 Z"/></g>
<g><path style="opacity:.4" fill="#fefffe" d="M 95.5,42.5 C 96.8333,43.1667 96.8333,43.1667 95.5,42.5 Z"/></g>
<g><path style="opacity:.4" fill="#fefffe" d="M 188.5,42.5 C 189.833,43.1667 189.833,43.1667 188.5,42.5 Z"/></g>
<g><path style="opacity:.4" fill="#fefffe" d="M 241.5,42.5 C 242.833,43.1667 242.833,43.1667 241.5,42.5 Z"/></g>
<g><path style="opacity:.4" fill="#fefffe" d="M 289.5,42.5 C 290.833,43.1667 290.833,43.1667 289.5,42.5 Z"/></g>
<g><path style="opacity:.4" fill="#fefffe" d="M 93.5,43.5 C 94.8333,44.1667 94.8333,44.1667 93.5,43.5 Z"/></g>
<g><path style="opacity:.4" fill="#fefffe" d="M 109.5,45.5 C 108.833,44.1667 108.833,44.1667 109.5,45.5 Z"/></g>
<g><path style="opacity:.4" fill="#fefffe" d="M 265.5,44.5 C 265.833,44.5 266.167,44.5 266.5,44.5C 266.315,45.1701 265.981,45.1701 265.5,44.5 Z"/></g>
<g><path style="opacity:.4" fill="#fefffe" d="M 290.5,44.5 C 291.833,45.1667 291.833,45.1667 290.5,44.5 Z"/></g>
<g><path style="opacity:.4" fill="#fefffe" d="M 89.5,45.5 C 90.8333,46.1667 90.8333,46.1667 89.5,45.5 Z"/></g>
<g><path style="opacity:.4" fill="#fefffe" d="M 107.5,46.5 C 106.833,45.1667 106.833,45.1667 107.5,46.5 Z"/></g>
<g><path style="opacity:.4" fill="#fefffe" d="M 88.5,46.5 C 88.8333,46.5 89.1667,46.5 89.5,46.5C 89.3147,47.1701 88.9813,47.1701 88.5,46.5 Z"/></g>
<g><path style="opacity:.4" fill="#fefffe" d="M 292.5,46.5 C 293.833,47.1667 293.833,47.1667 292.5,46.5 Z"/></g>
<g><path style="opacity:.4" fill="#fefffe" d="M 104.5,48.5 C 103.833,47.1667 103.833,47.1667 104.5,48.5 Z"/></g>
<g><path style="opacity:.4" fill="#fefffe" d="M 145.5,47.5 C 146.833,48.1667 146.833,48.1667 145.5,47.5 Z"/></g>
<g><path style="opacity:.4" fill="#fefffe" d="M 212.5,47.5 C 211.833,48.1667 211.833,48.1667 212.5,47.5 Z"/></g>
<g><path style="opacity:.4" fill="#fefffe" d="M 86.5,48.5 C 87.8333,49.1667 87.8333,49.1667 86.5,48.5 Z"/></g>
<g><path style="opacity:.4" fill="#fefffe" d="M 215.5,48.5 C 214.833,49.1667 214.833,49.1667 215.5,48.5 Z"/></g>
<g><path style="opacity:.4" fill="#fefffe" d="M 251.5,48.5 C 252.833,49.1667 252.833,49.1667 251.5,48.5 Z"/></g>
<g><path style="opacity:.4" fill="#fefffe" d="M 270.5,49.5 C 269.833,50.1667 269.833,50.1667 270.5,49.5 Z"/></g>
<g><path style="opacity:.4" fill="#fefffe" d="M 84.5,50.5 C 85.8333,51.1667 85.8333,51.1667 84.5,50.5 Z"/></g>
<g><path style="opacity:.4" fill="#fefffe" d="M 135.5,50.5 C 136.833,51.1667 136.833,51.1667 135.5,50.5 Z"/></g>
<g><path style="opacity:.4" fill="#fefffe" d="M 60.5,52.5 C 59.8333,51.1667 59.8333,51.1667 60.5,52.5 Z"/></g>
<g><path style="opacity:.4" fill="#fefffe" d="M 255.5,51.5 C 256.833,52.1667 256.833,52.1667 255.5,51.5 Z"/></g>
<g><path style="opacity:.4" fill="#fefffe" d="M 274.5,51.5 C 273.833,52.1667 273.833,52.1667 274.5,51.5 Z"/></g>
<g><path style="opacity:.4" fill="#fefffe" d="M 58.5,54.5 C 57.8333,53.1667 57.8333,53.1667 58.5,54.5 Z"/></g>
<g><path style="opacity:.4" fill="#fefffe" d="M 224.5,64.5 C 224.842,65.3382 225.508,65.6716 226.5,65.5C 230.435,67.4673 234.435,69.4673 238.5,71.5C 240.534,72.4538 242.534,73.4538 244.5,74.5C 244.973,75.9063 245.973,76.573 247.5,76.5C 248.262,78.2624 249.596,79.2624 251.5,79.5C 251.842,80.3382 252.508,80.6716 253.5,80.5C 253.328,81.4916 253.662,82.1583 254.5,82.5C 255.795,83.4884 257.128,84.4884 258.5,85.5C 260.846,87.9791 263.513,90.1458 266.5,92C 265.828,93.5793 266.495,94.746 268.5,95.5C 271.156,99.8506 274.823,103.851 279.5,107.5C 279.328,108.492 279.662,109.158 280.5,109.5C 283.698,115.551 287.365,120.718 291.5,125C 290.766,127.093 291.433,127.593 293.5,126.5C 293.586,127.496 293.252,128.329 292.5,129C 297.315,136.658 301.648,144.491 305.5,152.5C 320.699,189.662 329.533,227.662 332,266.5C 332.692,267.025 333.192,267.692 333.5,268.5C 333.471,295.692 333.471,322.858 333.5,350C 332.874,350.75 332.374,351.584 332,352.5C 331.353,365.979 329.853,379.313 327.5,392.5C 325.51,394.767 323.343,396.1 321,396.5C 318.205,394.707 315.705,392.54 313.5,390C 314.063,387.105 314.063,384.105 313.5,381C 314,380.5 314.5,380 315,379.5C 320.884,334.349 320.884,289.016 315,243.5C 314.76,241.148 313.927,239.148 312.5,237.5C 313.479,233.183 313.313,228.85 312,224.5C 309.107,209.413 305.274,195.08 300.5,181.5C 299.069,176.989 297.402,172.655 295.5,168.5C 294.878,166.878 293.878,165.545 292.5,164.5C 292.414,163.504 292.748,162.671 293.5,162C 290.892,155.739 287.892,150.239 284.5,145.5C 284.008,143.181 283.008,141.181 281.5,139.5C 281.672,138.508 281.338,137.842 280.5,137.5C 279.154,135.463 277.82,133.463 276.5,131.5C 274.656,127.808 272.323,124.475 269.5,121.5C 268.64,119.712 267.64,118.045 266.5,116.5C 264.471,114.142 262.471,111.808 260.5,109.5C 260.167,108.5 259.5,107.833 258.5,107.5C 258.167,106.5 257.5,105.833 256.5,105.5C 255.811,102.811 254.144,101.144 251.5,100.5C 250.5,98.8333 249.167,97.5 247.5,96.5C 245.973,94.4163 243.64,92.4163 240.5,90.5C 240.158,89.6618 239.492,89.3284 238.5,89.5C 238.167,88.1667 237.833,88.1667 237.5,89.5C 235.853,87.6736 233.853,86.3403 231.5,85.5C 228.096,83.1329 224.429,81.1329 220.5,79.5C 220.167,78.1667 219.833,78.1667 219.5,79.5C 215.094,77.194 210.427,75.3607 205.5,74C 196.484,71.9591 187.65,70.7925 179,70.5C 175.779,70.5413 172.612,70.8747 169.5,71.5C 167.64,70.7401 165.973,69.7401 164.5,68.5C 163.532,65.5547 163.366,62.5547 164,59.5C 166.225,58.0611 168.225,56.3945 170,54.5C 177.946,56.1813 186.113,57.1813 194.5,57.5C 195.086,57.2907 195.586,56.9574 196,56.5C 199.633,57.4956 203.299,58.4956 207,59.5C 207.772,59.3552 208.439,59.0219 209,58.5C 213.49,61.0744 218.656,63.0744 224.5,64.5 Z"/></g>
<g><path style="opacity:.4" fill="#fefffe" d="M 277.5,54.5 C 276.833,55.1667 276.833,55.1667 277.5,54.5 Z"/></g>
<g><path style="opacity:.4" fill="#fefffe" d="M 300.5,54.5 C 301.833,55.1667 301.833,55.1667 300.5,54.5 Z"/></g>
<g><path style="opacity:.4" fill="#fefffe" d="M 93.5,56.5 C 92.8333,55.1667 92.8333,55.1667 93.5,56.5 Z"/></g>
<g><path style="opacity:.4" fill="#fefffe" d="M 260.5,55.5 C 261.833,56.1667 261.833,56.1667 260.5,55.5 Z"/></g>
<g><path style="opacity:.4" fill="#fefffe" d="M 263.5,57.5 C 264.833,58.1667 264.833,58.1667 263.5,57.5 Z"/></g>
<g><path style="opacity:.4" fill="#fefffe" d="M 303.5,57.5 C 304.833,58.1667 304.833,58.1667 303.5,57.5 Z"/></g>
<g><path style="opacity:.4" fill="#fefffe" d="M 87.5,60.5 C 86.8333,59.1667 86.8333,59.1667 87.5,60.5 Z"/></g>
<g><path style="opacity:.4" fill="#fefffe" d="M 237.5,59.5 C 236.833,60.1667 236.833,60.1667 237.5,59.5 Z"/></g>
<g><path style="opacity:.4" fill="#fefffe" d="M 265.5,59.5 C 266.833,60.1667 266.833,60.1667 265.5,59.5 Z"/></g>
<g><path style="opacity:.4" fill="#fefffe" d="M 281.5,59.5 C 280.833,60.1667 280.833,60.1667 281.5,59.5 Z"/></g>
<g><path style="opacity:.4" fill="#fefffe" d="M 114.5,60.5 C 115.833,61.1667 115.833,61.1667 114.5,60.5 Z"/></g>
<g><path style="opacity:.4" fill="#fefffe" d="M 51.5,62.5 C 50.8333,61.1667 50.8333,61.1667 51.5,62.5 Z"/></g>
<g><path style="opacity:.4" fill="#fefffe" d="M 308.5,62.5 C 307.833,61.1667 307.833,61.1667 308.5,62.5 Z"/></g>
<g><path style="opacity:.4" fill="#fefffe" d="M 71.5,62.5 C 72.8333,63.1667 72.8333,63.1667 71.5,62.5 Z"/></g>
<g><path style="opacity:.4" fill="#fefffe" d="M 285.5,62.5 C 284.833,63.1667 284.833,63.1667 285.5,62.5 Z"/></g>
<g><path style="opacity:.4" fill="#fefffe" d="M 224.5,63.5 C 225.833,64.1667 225.833,64.1667 224.5,63.5 Z"/></g>
<g><path style="opacity:.4" fill="#fefffe" d="M 70.5,64.5 C 71.8333,65.1667 71.8333,65.1667 70.5,64.5 Z"/></g>
<g><path style="opacity:.4" fill="#fefffe" d="M 226.5,64.5 C 227.833,65.1667 227.833,65.1667 226.5,64.5 Z"/></g>
<g><path style="opacity:.4" fill="#fefffe" d="M 107.5,65.5 C 108.833,66.1667 108.833,66.1667 107.5,65.5 Z"/></g>
<g><path style="opacity:.4" fill="#fefffe" d="M 129.5,85.5 C 128.508,85.3284 127.842,85.6618 127.5,86.5C 124.865,87.4735 122.865,89.1402 121.5,91.5C 120.883,91.3893 120.383,91.056 120,90.5C 117.329,92.6716 114.829,95.005 112.5,97.5C 112.167,96.1667 111.833,96.1667 111.5,97.5C 109.486,99.1829 107.82,101.183 106.5,103.5C 103.833,104.167 102.167,105.833 101.5,108.5C 99.2274,109.767 97.2274,111.433 95.5,113.5C 91.1226,118.234 87.456,123.567 84.5,129.5C 83.0937,129.973 82.427,130.973 82.5,132.5C 80.9925,134.181 79.9925,136.181 79.5,138.5C 76.2121,143.39 73.8787,148.39 72.5,153.5C 71.6618,153.842 71.3284,154.508 71.5,155.5C 63.3879,175.894 59.0546,197.061 58.5,219C 51.6746,225.6 46.008,224.767 41.5,216.5C 43.3682,206.492 45.3682,196.492 47.5,186.5C 49.4768,175.46 52.4768,164.127 56.5,152.5C 60.1184,143.286 64.1184,134.62 68.5,126.5C 71.8161,121.622 74.8161,116.955 77.5,112.5C 78.3382,112.158 78.6716,111.492 78.5,110.5C 81.2085,107.792 83.5419,104.792 85.5,101.5C 88.1667,99.5 90.5,97.1667 92.5,94.5C 95.4729,92.1938 98.1395,89.5272 100.5,86.5C 106.058,83.1217 111.224,79.1217 116,74.5C 116.333,74.8333 116.667,75.1667 117,75.5C 119.707,73.2889 122.54,71.2889 125.5,69.5C 126.492,69.6716 127.158,69.3382 127.5,68.5C 129.371,68.1412 130.871,67.1412 132,65.5C 134.333,65.5 136.667,65.5 139,65.5C 140.5,67 142,68.5 143.5,70C 142.167,71.6667 142.167,73.3333 143.5,75C 142.101,78.064 139.768,80.064 136.5,81C 136.833,81.3333 137.167,81.6667 137.5,82C 134.499,82.7378 131.832,83.9045 129.5,85.5 Z"/></g>
<g><path style="opacity:.4" fill="#fefffe" d="M 288.5,65.5 C 287.833,66.1667 287.833,66.1667 288.5,65.5 Z"/></g>
<g><path style="opacity:.4" fill="#fefffe" d="M 68.5,66.5 C 69.8333,67.1667 69.8333,67.1667 68.5,66.5 Z"/></g>
<g><path style="opacity:.4" fill="#fefffe" d="M 67.5,67.5 C 67.8333,67.5 68.1667,67.5 68.5,67.5C 68.3147,68.1701 67.9813,68.1701 67.5,67.5 Z"/></g>
<g><path style="opacity:.4" fill="#fefffe" d="M 127.5,68.5 C 126.833,67.1667 126.833,67.1667 127.5,68.5 Z"/></g>
<g><path style="opacity:.4" fill="#fefffe" d="M 290.5,67.5 C 289.833,68.1667 289.833,68.1667 290.5,67.5 Z"/></g>
<g><path style="opacity:.4" fill="#fefffe" d="M 46.5,69.5 C 45.8333,68.1667 45.8333,68.1667 46.5,69.5 Z"/></g>
<g><path style="opacity:.4" fill="#fefffe" d="M 125.5,69.5 C 124.833,68.1667 124.833,68.1667 125.5,69.5 Z"/></g>
<g><path style="opacity:.4" fill="#fefffe" d="M 164.5,68.5 C 163.833,69.1667 163.833,69.1667 164.5,68.5 Z"/></g>
<g><path style="opacity:.4" fill="#fefffe" d="M 238.5,70.5 C 239.833,71.1667 239.833,71.1667 238.5,70.5 Z"/></g>
<g><path style="opacity:.4" fill="#fefffe" d="M 253.5,70.5 C 252.833,71.1667 252.833,71.1667 253.5,70.5 Z"/></g>
<g><path style="opacity:.4" fill="#fefffe" d="M 63.5,72.5 C 64.8333,73.1667 64.8333,73.1667 63.5,72.5 Z"/></g>
<g><path style="opacity:.4" fill="#fefffe" d="M 281.5,72.5 C 282.833,73.1667 282.833,73.1667 281.5,72.5 Z"/></g>
<g><path style="opacity:.4" fill="#fefffe" d="M 97.5,73.5 C 98.8333,74.1667 98.8333,74.1667 97.5,73.5 Z"/></g>
<g><path style="opacity:.4" fill="#fefffe" d="M 244.5,73.5 C 245.833,74.1667 245.833,74.1667 244.5,73.5 Z"/></g>
<g><path style="opacity:.4" fill="#fefffe" d="M 316.5,73.5 C 317.833,74.1667 317.833,74.1667 316.5,73.5 Z"/></g>
<g><path style="opacity:.4" fill="#fefffe" d="M 84.5,74.5 C 83.8333,75.1667 83.8333,75.1667 84.5,74.5 Z"/></g>
<g><path style="opacity:.4" fill="#fefffe" d="M 257.5,74.5 C 256.833,75.1667 256.833,75.1667 257.5,74.5 Z"/></g>
<g><path style="opacity:.4" fill="#fefffe" d="M 95.5,75.5 C 96.8333,76.1667 96.8333,76.1667 95.5,75.5 Z"/></g>
<g><path style="opacity:.4" fill="#fefffe" d="M 247.5,75.5 C 248.833,76.1667 248.833,76.1667 247.5,75.5 Z"/></g>
<g><path style="opacity:.4" fill="#fefffe" d="M 318.5,75.5 C 319.833,76.1667 319.833,76.1667 318.5,75.5 Z"/></g>
<g><path style="opacity:.4" fill="#fefffe" d="M 60.5,76.5 C 61.8333,77.1667 61.8333,77.1667 60.5,76.5 Z"/></g>
<g><path style="opacity:.4" fill="#fefffe" d="M 260.5,76.5 C 259.833,77.1667 259.833,77.1667 260.5,76.5 Z"/></g>
<g><path style="opacity:.4" fill="#fefffe" d="M 298.5,76.5 C 297.833,77.1667 297.833,77.1667 298.5,76.5 Z"/></g>
<g><path style="opacity:.4" fill="#fefffe" d="M 286.5,77.5 C 287.833,78.1667 287.833,78.1667 286.5,77.5 Z"/></g>
<g><path style="opacity:.4" fill="#fefffe" d="M 251.5,78.5 C 252.833,79.1667 252.833,79.1667 251.5,78.5 Z"/></g>
<g><path style="opacity:.4" fill="#fefffe" d="M 320.5,78.5 C 321.833,79.1667 321.833,79.1667 320.5,78.5 Z"/></g>
<g><path style="opacity:.4" fill="#fefffe" d="M 219.5,79.5 C 219.833,79.5 220.167,79.5 220.5,79.5C 220.315,80.1701 219.981,80.1701 219.5,79.5 Z"/></g>
<g><path style="opacity:.4" fill="#fefffe" d="M 253.5,79.5 C 254.833,80.1667 254.833,80.1667 253.5,79.5 Z"/></g>
<g><path style="opacity:.4" fill="#fefffe" d="M 254.5,81.5 C 255.833,82.1667 255.833,82.1667 254.5,81.5 Z"/></g>
<g><path style="opacity:.4" fill="#fefffe" d="M 55.5,83.5 C 56.8333,84.1667 56.8333,84.1667 55.5,83.5 Z"/></g>
<g><path style="opacity:.4" fill="#fefffe" d="M 290.5,83.5 C 291.833,84.1667 291.833,84.1667 290.5,83.5 Z"/></g>
<g><path style="opacity:.4" fill="#fefffe" d="M 258.5,84.5 C 259.833,85.1667 259.833,85.1667 258.5,84.5 Z"/></g>
<g><path style="opacity:.4" fill="#fefffe" d="M 269.5,84.5 C 268.833,85.1667 268.833,85.1667 269.5,84.5 Z"/></g>
<g><path style="opacity:.4" fill="#fefffe" d="M 305.5,84.5 C 304.833,85.1667 304.833,85.1667 305.5,84.5 Z"/></g>
<g><path style="opacity:.4" fill="#fefffe" d="M 100.5,86.5 C 99.8333,85.1667 99.8333,85.1667 100.5,86.5 Z"/></g>
<g><path style="opacity:.4" fill="#fefffe" d="M 129.5,85.5 C 130.833,86.1667 130.833,86.1667 129.5,85.5 Z"/></g>
<g><path style="opacity:.4" fill="#fefffe" d="M 170.5,96.5 C 169.662,96.8417 169.328,97.5084 169.5,98.5C 164.717,99.8617 160.05,101.528 155.5,103.5C 155.167,102.167 154.833,102.167 154.5,103.5C 148.905,105.299 143.572,107.632 138.5,110.5C 137.29,110.932 136.29,111.599 135.5,112.5C 134.128,113.512 132.795,114.512 131.5,115.5C 128.911,116.419 126.911,118.086 125.5,120.5C 124.508,120.328 123.842,120.662 123.5,121.5C 122.662,121.842 122.328,122.508 122.5,123.5C 119.833,124.167 118.167,125.833 117.5,128.5C 116.508,128.328 115.842,128.662 115.5,129.5C 113.674,131.147 112.34,133.147 111.5,135.5C 110.167,135.5 109.5,136.167 109.5,137.5C 108.833,137.5 108.5,137.833 108.5,138.5C 107.662,138.842 107.328,139.508 107.5,140.5C 106.833,140.5 106.5,140.833 106.5,141.5C 105.167,141.833 105.167,142.167 106.5,142.5C 104.771,143.236 103.771,144.57 103.5,146.5C 102.662,146.842 102.328,147.508 102.5,148.5C 99.5507,151.381 98.0507,154.715 98,158.5C 97.6667,158.167 97.3333,157.833 97,157.5C 92.4084,167.609 88.4084,177.942 85,188.5C 80.5015,192.459 76.0015,192.459 71.5,188.5C 71.7564,186.208 71.4231,184.041 70.5,182C 72.0368,180.89 72.7035,179.39 72.5,177.5C 75.1106,172.07 77.4439,166.07 79.5,159.5C 81.2927,157.574 82.2927,155.241 82.5,152.5C 83.3382,152.158 83.6716,151.492 83.5,150.5C 86.4825,145.206 89.4825,139.873 92.5,134.5C 95.2449,130.509 98.5782,126.342 102.5,122C 102.167,121.667 101.833,121.333 101.5,121C 104.394,118.035 107.394,115.201 110.5,112.5C 111.5,112.167 112.167,111.5 112.5,110.5C 115.455,108.878 118.122,106.878 120.5,104.5C 122.389,103.396 124.055,102.063 125.5,100.5C 128.39,100.473 129.39,99.3065 128.5,97C 129.094,96.5357 129.761,96.369 130.5,96.5C 130.56,97.0431 130.893,97.3764 131.5,97.5C 134.755,96.0449 137.755,94.3782 140.5,92.5C 148.012,89.1649 155.845,86.8316 164,85.5C 167.592,85.7486 170.092,87.5819 171.5,91C 171.33,92.5695 170.997,94.4028 170.5,96.5 Z"/></g>
<g><path style="opacity:.4" fill="#fefffe" d="M 193.5,86.5 C 192.833,85.1667 192.833,85.1667 193.5,86.5 Z"/></g>
<g><path style="opacity:.4" fill="#fefffe" d="M 215.5,90.5 C 220.763,93.1317 226.097,95.7984 231.5,98.5C 231.842,99.3382 232.508,99.6716 233.5,99.5C 236.92,101.73 240.253,104.064 243.5,106.5C 245.091,108.633 247.091,110.299 249.5,111.5C 251.279,113.546 252.946,115.713 254.5,118C 251.75,125.668 246.75,127.501 239.5,123.5C 236.48,120.484 233.146,117.817 229.5,115.5C 229.167,114.167 228.833,114.167 228.5,115.5C 227.5,114.833 226.5,114.167 225.5,113.5C 224.564,112.026 223.23,111.026 221.5,110.5C 217.36,107.362 213.027,105.362 208.5,104.5C 203.92,102.84 198.92,101.174 193.5,99.5C 193.027,98.0937 192.027,97.427 190.5,97.5C 191.632,95.5331 191.299,93.6998 189.5,92C 190.665,90.0083 191.998,88.175 193.5,86.5C 195.738,85.4634 198.071,85.2967 200.5,86C 205.548,87.4053 210.548,88.9053 215.5,90.5 Z"/></g>
<g><path style="opacity:.4" fill="#fefffe" d="M 231.5,85.5 C 230.833,86.1667 230.833,86.1667 231.5,85.5 Z"/></g>
<g><path style="opacity:.4" fill="#fefffe" d="M 327.5,85.5 C 328.833,86.1667 328.833,86.1667 327.5,85.5 Z"/></g>
<g><path style="opacity:.4" fill="#fefffe" d="M 127.5,86.5 C 128.833,87.1667 128.833,87.1667 127.5,86.5 Z"/></g>
<g><path style="opacity:.4" fill="#fefffe" d="M 293.5,86.5 C 294.833,87.1667 294.833,87.1667 293.5,86.5 Z"/></g>
<g><path style="opacity:.4" fill="#fefffe" d="M 33.5,89.5 C 32.8333,88.1667 32.8333,88.1667 33.5,89.5 Z"/></g>
<g><path style="opacity:.4" fill="#fefffe" d="M 68.5,107.5 C 67.2632,108.965 66.2632,110.632 65.5,112.5C 63.8906,113.665 63.5573,114.999 64.5,116.5C 61.7079,117.392 60.3746,119.392 60.5,122.5C 54.7294,132.114 50.3961,142.781 47.5,154.5C 43.4464,165.051 40.7797,176.051 39.5,187.5C 35.3653,207.694 34.5319,228.36 37,249.5C 39.2853,264.253 41.2853,279.253 43,294.5C 44.6039,311.548 41.2705,327.548 33,342.5C 31.8549,343.636 30.6883,344.636 29.5,345.5C 27.8333,346.833 26.1667,346.833 24.5,345.5C 23.205,344.512 21.8717,343.512 20.5,342.5C 19.5651,339.887 19.3985,337.221 20,334.5C 21.0585,331.535 22.2252,329.202 23.5,327.5C 24.7384,325.786 25.405,323.786 25.5,321.5C 27.9446,315.196 28.9446,308.53 28.5,301.5C 26.7565,282.794 24.5899,264.127 22,245.5C 21.6087,229.238 21.4421,213.072 21.5,197C 24.6957,184.704 27.529,172.204 30,159.5C 31.9178,156.011 32.7511,152.511 32.5,149C 35.1885,144.101 37.1885,138.935 38.5,133.5C 39.3382,133.158 39.6716,132.492 39.5,131.5C 43.7967,120.948 49.4633,109.615 56.5,97.5C 58.3606,94.9784 60.3606,92.4784 62.5,90C 68.7167,88.1018 72.3834,90.2685 73.5,96.5C 72.6213,100.586 70.9546,104.253 68.5,107.5 Z"/></g>
<g><path style="opacity:.4" fill="#fefffe" d="M 215.5,89.5 C 216.833,90.1667 216.833,90.1667 215.5,89.5 Z"/></g>
<g><path style="opacity:.4" fill="#fefffe" d="M 237.5,89.5 C 237.833,89.5 238.167,89.5 238.5,89.5C 238.315,90.1701 237.981,90.1701 237.5,89.5 Z"/></g>
<g><path style="opacity:.4" fill="#fefffe" d="M 240.5,90.5 C 239.833,91.1667 239.833,91.1667 240.5,90.5 Z"/></g>
<g><path style="opacity:.4" fill="#fefffe" d="M 121.5,91.5 C 122.833,92.1667 122.833,92.1667 121.5,91.5 Z"/></g>
<g><path style="opacity:.4" fill="#fefffe" d="M 140.5,92.5 C 139.833,91.1667 139.833,91.1667 140.5,92.5 Z"/></g>
<g><path style="opacity:.4" fill="#fefffe" d="M 31.5,93.5 C 30.8333,92.1667 30.8333,92.1667 31.5,93.5 Z"/></g>
<g><path style="opacity:.4" fill="#fefffe" d="M 298.5,92.5 C 299.833,93.1667 299.833,93.1667 298.5,92.5 Z"/></g>
<g><path style="opacity:.4" fill="#fefffe" d="M 29.5,94.5 C 28.8333,93.1667 28.8333,93.1667 29.5,94.5 Z"/></g>
<g><path style="opacity:.4" fill="#fefffe" d="M 92.5,94.5 C 91.8333,93.1667 91.8333,93.1667 92.5,94.5 Z"/></g>
<g><path style="opacity:.4" fill="#fefffe" d="M 311.5,93.5 C 310.833,94.1667 310.833,94.1667 311.5,93.5 Z"/></g>
<g><path style="opacity:.4" fill="#fefffe" d="M 268.5,94.5 C 269.833,95.1667 269.833,95.1667 268.5,94.5 Z"/></g>
<g><path style="opacity:.4" fill="#fefffe" d="M 278.5,94.5 C 277.833,95.1667 277.833,95.1667 278.5,94.5 Z"/></g>
<g><path style="opacity:.4" fill="#fefffe" d="M 130.5,95.5 C 131.833,96.1667 131.833,96.1667 130.5,95.5 Z"/></g>
<g><path style="opacity:.4" fill="#fefffe" d="M 47.5,96.5 C 48.8333,97.1667 48.8333,97.1667 47.5,96.5 Z"/></g>
<g><path style="opacity:.4" fill="#fefffe" d="M 56.5,97.5 C 55.8333,96.1667 55.8333,96.1667 56.5,97.5 Z"/></g>
<g><path style="opacity:.4" fill="#fefffe" d="M 170.5,96.5 C 171.833,97.1667 171.833,97.1667 170.5,96.5 Z"/></g>
<g><path style="opacity:.4" fill="#fefffe" d="M 247.5,96.5 C 246.833,97.1667 246.833,97.1667 247.5,96.5 Z"/></g>
<g><path style="opacity:.4" fill="#fefffe" d="M 280.5,96.5 C 279.833,97.1667 279.833,97.1667 280.5,96.5 Z"/></g>
<g><path style="opacity:.4" fill="#fefffe" d="M 301.5,96.5 C 302.833,97.1667 302.833,97.1667 301.5,96.5 Z"/></g>
<g><path style="opacity:.4" fill="#fefffe" d="M 111.5,97.5 C 111.833,97.5 112.167,97.5 112.5,97.5C 112.315,98.1701 111.981,98.1701 111.5,97.5 Z"/></g>
<g><path style="opacity:.4" fill="#fefffe" d="M 190.5,97.5 C 189.833,98.1667 189.833,98.1667 190.5,97.5 Z"/></g>
<g><path style="opacity:.4" fill="#fefffe" d="M 231.5,97.5 C 232.833,98.1667 232.833,98.1667 231.5,97.5 Z"/></g>
<g><path style="opacity:.4" fill="#fefffe" d="M 333.5,97.5 C 334.833,98.1667 334.833,98.1667 333.5,97.5 Z"/></g>
<g><path style="opacity:.4" fill="#fefffe" d="M 46.5,98.5 C 47.8333,99.1667 47.8333,99.1667 46.5,98.5 Z"/></g>
<g><path style="opacity:.4" fill="#fefffe" d="M 169.5,98.5 C 170.833,99.1667 170.833,99.1667 169.5,98.5 Z"/></g>
<g><path style="opacity:.4" fill="#fefffe" d="M 233.5,98.5 C 234.833,99.1667 234.833,99.1667 233.5,98.5 Z"/></g>
<g><path style="opacity:.4" fill="#fefffe" d="M 282.5,98.5 C 281.833,99.1667 281.833,99.1667 282.5,98.5 Z"/></g>
<g><path style="opacity:.4" fill="#fefffe" d="M 125.5,100.5 C 124.833,99.1667 124.833,99.1667 125.5,100.5 Z"/></g>
<g><path style="opacity:.4" fill="#fefffe" d="M 193.5,99.5 C 192.833,100.167 192.833,100.167 193.5,99.5 Z"/></g>
<g><path style="opacity:.4" fill="#fefffe" d="M 85.5,101.5 C 84.8333,100.167 84.8333,100.167 85.5,101.5 Z"/></g>
<g><path style="opacity:.4" fill="#fefffe" d="M 251.5,100.5 C 250.833,101.167 250.833,101.167 251.5,100.5 Z"/></g>
<g><path style="opacity:.4" fill="#fefffe" d="M 316.5,100.5 C 315.833,101.167 315.833,101.167 316.5,100.5 Z"/></g>
<g><path style="opacity:.4" fill="#fefffe" d="M 306.5,101.5 C 307.833,102.167 307.833,102.167 306.5,101.5 Z"/></g>
<g><path style="opacity:.4" fill="#fefffe" d="M 106.5,103.5 C 107.833,104.167 107.833,104.167 106.5,103.5 Z"/></g>
<g><path style="opacity:.4" fill="#fefffe" d="M 120.5,104.5 C 119.833,103.167 119.833,103.167 120.5,104.5 Z"/></g>
<g><path style="opacity:.4" fill="#fefffe" d="M 154.5,103.5 C 154.833,103.5 155.167,103.5 155.5,103.5C 155.315,104.17 154.981,104.17 154.5,103.5 Z"/></g>
<g><path style="opacity:.4" fill="#fefffe" d="M 317.5,103.5 C 316.833,104.167 316.833,104.167 317.5,103.5 Z"/></g>
<g><path style="opacity:.4" fill="#fefffe" d="M 336.5,103.5 C 337.833,104.167 337.833,104.167 336.5,103.5 Z"/></g>
<g><path style="opacity:.4" fill="#fefffe" d="M 208.5,104.5 C 207.833,105.167 207.833,105.167 208.5,104.5 Z"/></g>
<g><path style="opacity:.4" fill="#fefffe" d="M 243.5,105.5 C 244.833,106.167 244.833,106.167 243.5,105.5 Z"/></g>
<g><path style="opacity:.4" fill="#fefffe" d="M 256.5,105.5 C 255.833,106.167 255.833,106.167 256.5,105.5 Z"/></g>
<g><path style="opacity:.4" fill="#fefffe" d="M 337.5,105.5 C 338.833,106.167 338.833,106.167 337.5,105.5 Z"/></g>
<g><path style="opacity:.4" fill="#fefffe" d="M 279.5,106.5 C 280.833,107.167 280.833,107.167 279.5,106.5 Z"/></g>
<g><path style="opacity:.4" fill="#fefffe" d="M 68.5,107.5 C 69.8333,108.167 69.8333,108.167 68.5,107.5 Z"/></g>
<g><path style="opacity:.4" fill="#fefffe" d="M 258.5,107.5 C 257.833,108.167 257.833,108.167 258.5,107.5 Z"/></g>
<g><path style="opacity:.4" fill="#fefffe" d="M 101.5,108.5 C 102.833,109.167 102.833,109.167 101.5,108.5 Z"/></g>
<g><path style="opacity:.4" fill="#fefffe" d="M 280.5,108.5 C 281.833,109.167 281.833,109.167 280.5,108.5 Z"/></g>
<g><path style="opacity:.4" fill="#fefffe" d="M 78.5,110.5 C 77.8333,109.167 77.8333,109.167 78.5,110.5 Z"/></g>
<g><path style="opacity:.4" fill="#fefffe" d="M 112.5,110.5 C 111.833,109.167 111.833,109.167 112.5,110.5 Z"/></g>
<g><path style="opacity:.4" fill="#fefffe" d="M 260.5,109.5 C 259.833,110.167 259.833,110.167 260.5,109.5 Z"/></g>
<g><path style="opacity:.4" fill="#fefffe" d="M 290.5,109.5 C 289.833,110.167 289.833,110.167 290.5,109.5 Z"/></g>
<g><path style="opacity:.4" fill="#fefffe" d="M 138.5,110.5 C 139.833,111.167 139.833,111.167 138.5,110.5 Z"/></g>
<g><path style="opacity:.4" fill="#fefffe" d="M 221.5,110.5 C 220.833,111.167 220.833,111.167 221.5,110.5 Z"/></g>
<g><path style="opacity:.4" fill="#fefffe" d="M 249.5,110.5 C 250.833,111.167 250.833,111.167 249.5,110.5 Z"/></g>
<g><path style="opacity:.4" fill="#fefffe" d="M 77.5,112.5 C 76.8333,111.167 76.8333,111.167 77.5,112.5 Z"/></g>
<g><path style="opacity:.4" fill="#fefffe" d="M 110.5,112.5 C 109.833,111.167 109.833,111.167 110.5,112.5 Z"/></g>
<g><path style="opacity:.4" fill="#fefffe" d="M 311.5,111.5 C 312.833,112.167 312.833,112.167 311.5,111.5 Z"/></g>
<g><path style="opacity:.4" fill="#fefffe" d="M 65.5,112.5 C 66.8333,113.167 66.8333,113.167 65.5,112.5 Z"/></g>
<g><path style="opacity:.4" fill="#fefffe" d="M 135.5,112.5 C 136.833,113.167 136.833,113.167 135.5,112.5 Z"/></g>
<g><path style="opacity:.4" fill="#fefffe" d="M 95.5,113.5 C 96.8333,114.167 96.8333,114.167 95.5,113.5 Z"/></g>
<g><path style="opacity:.4" fill="#fefffe" d="M 226.5,126.5 C 227.292,128.745 228.625,129.078 230.5,127.5C 230.389,128.117 230.056,128.617 229.5,129C 232.222,131.358 235.222,133.191 238.5,134.5C 242.102,139.391 245.769,143.724 249.5,147.5C 250.167,148.833 251.167,149.833 252.5,150.5C 252.328,151.492 252.662,152.158 253.5,152.5C 253.328,153.492 253.662,154.158 254.5,154.5C 257.779,159.403 260.779,164.403 263.5,169.5C 265.977,177.45 269.31,184.95 273.5,192C 273.043,192.414 272.709,192.914 272.5,193.5C 274.033,198.618 276.033,203.452 278.5,208C 277.978,208.561 277.645,209.228 277.5,210C 278.817,213.749 279.817,217.582 280.5,221.5C 280.818,222.647 281.484,223.481 282.5,224C 281.941,224.725 281.608,225.558 281.5,226.5C 282.8,235.282 284.467,243.949 286.5,252.5C 285.954,253.772 285.621,255.106 285.5,256.5C 288.382,286.705 289.049,317.038 287.5,347.5C 285.516,348.156 283.516,348.822 281.5,349.5C 279.5,349 277.5,348.5 275.5,348C 276.654,347.086 276.487,346.253 275,345.5C 273.957,319.503 272.957,293.503 272,267.5C 271.261,258.47 270.261,249.47 269,240.5C 267.252,238.946 267.085,237.28 268.5,235.5C 268.071,232.971 267.404,230.638 266.5,228.5C 263.655,211.006 258.655,195.006 251.5,180.5C 251.672,179.508 251.338,178.842 250.5,178.5C 250.13,175.733 248.796,173.733 246.5,172.5C 246.611,171.883 246.944,171.383 247.5,171C 245.733,168.456 244.066,165.956 242.5,163.5C 240.642,158.911 237.309,154.911 232.5,151.5C 231.833,150.167 230.833,149.167 229.5,148.5C 228.833,147.167 227.833,146.167 226.5,145.5C 225.564,144.026 224.23,143.026 222.5,142.5C 222.158,141.662 221.492,141.328 220.5,141.5C 219.117,140.557 217.784,139.557 216.5,138.5C 216.158,137.662 215.492,137.328 214.5,137.5C 208.74,133.803 202.407,131.469 195.5,130.5C 193.107,129.79 190.607,129.123 188,128.5C 183.641,128.516 179.141,128.683 174.5,129C 170.767,129.066 167.267,129.899 164,131.5C 163.667,131.167 163.333,130.833 163,130.5C 160.031,131.737 157.197,133.07 154.5,134.5C 153.508,134.328 152.842,134.662 152.5,135.5C 149.669,136.079 147.336,137.412 145.5,139.5C 144.508,139.328 143.842,139.662 143.5,140.5C 141.305,142.424 138.972,144.091 136.5,145.5C 134.519,146.105 134.185,147.105 135.5,148.5C 131.528,150.472 128.528,153.472 126.5,157.5C 123.128,159.992 121.128,162.992 120.5,166.5C 118.178,167.802 116.845,169.802 116.5,172.5C 114.003,176.16 112.003,180.16 110.5,184.5C 110.709,185.086 111.043,185.586 111.5,186C 107.714,192.605 105.214,199.772 104,207.5C 103.897,214.672 103.064,221.839 101.5,229C 101.502,232.021 101.836,234.854 102.5,237.5C 104.722,253.518 107.388,269.685 110.5,286C 110.547,294.38 110.38,302.88 110,311.5C 107.487,315.212 103.987,316.378 99.5,315C 98.9558,314.283 98.2891,313.783 97.5,313.5C 96.9717,312.279 96.305,311.113 95.5,310C 96.2003,305.827 96.5336,301.66 96.5,297.5C 95.9261,290.457 94.5928,283.623 92.5,277C 93.0585,276.275 93.3918,275.442 93.5,274.5C 84.3695,241.591 85.7028,208.924 97.5,176.5C 98.3382,176.158 98.6716,175.492 98.5,174.5C 101.629,167.579 105.295,160.912 109.5,154.5C 110.338,154.158 110.672,153.492 110.5,152.5C 111.906,152.027 112.573,151.027 112.5,149.5C 115.871,146.129 118.871,142.463 121.5,138.5C 123.404,138.262 124.738,137.262 125.5,135.5C 132.329,129.655 139.663,124.655 147.5,120.5C 148.791,120.737 149.791,120.404 150.5,119.5C 177.054,110.49 202.387,112.823 226.5,126.5 Z"/></g>
<g><path style="opacity:.4" fill="#fefffe" d="M 225.5,113.5 C 224.833,114.167 224.833,114.167 225.5,113.5 Z"/></g>
<g><path style="opacity:.4" fill="#fefffe" d="M 131.5,115.5 C 132.833,116.167 132.833,116.167 131.5,115.5 Z"/></g>
<g><path style="opacity:.4" fill="#fefffe" d="M 228.5,115.5 C 228.833,115.5 229.167,115.5 229.5,115.5C 229.315,116.17 228.981,116.17 228.5,115.5 Z"/></g>
<g><path style="opacity:.4" fill="#fefffe" d="M 294.5,115.5 C 293.833,116.167 293.833,116.167 294.5,115.5 Z"/></g>
<g><path style="opacity:.4" fill="#fefffe" d="M 26.5,116.5 C 25.8333,117.167 25.8333,117.167 26.5,116.5 Z"/></g>
<g><path style="opacity:.4" fill="#fefffe" d="M 64.5,116.5 C 65.8333,117.167 65.8333,117.167 64.5,116.5 Z"/></g>
<g><path style="opacity:.4" fill="#fefffe" d="M 266.5,116.5 C 265.833,117.167 265.833,117.167 266.5,116.5 Z"/></g>
<g><path style="opacity:.4" fill="#fefffe" d="M 314.5,116.5 C 315.833,117.167 315.833,117.167 314.5,116.5 Z"/></g>
<g><path style="opacity:.4" fill="#fefffe" d="M 343.5,117.5 C 344.833,118.167 344.833,118.167 343.5,117.5 Z"/></g>
<g><path style="opacity:.4" fill="#fefffe" d="M 150.5,119.5 C 149.833,118.167 149.833,118.167 150.5,119.5 Z"/></g>
<g><path style="opacity:.4" fill="#fefffe" d="M 147.5,120.5 C 146.833,119.167 146.833,119.167 147.5,120.5 Z"/></g>
<g><path style="opacity:.4" fill="#fefffe" d="M 326.5,119.5 C 325.833,120.167 325.833,120.167 326.5,119.5 Z"/></g>
<g><path style="opacity:.4" fill="#fefffe" d="M 125.5,120.5 C 126.833,121.167 126.833,121.167 125.5,120.5 Z"/></g>
<g><path style="opacity:.4" fill="#fefffe" d="M 316.5,120.5 C 317.833,121.167 317.833,121.167 316.5,120.5 Z"/></g>
<g><path style="opacity:.4" fill="#fefffe" d="M 123.5,121.5 C 124.833,122.167 124.833,122.167 123.5,121.5 Z"/></g>
<g><path style="opacity:.4" fill="#fefffe" d="M 269.5,121.5 C 268.833,122.167 268.833,122.167 269.5,121.5 Z"/></g>
<g><path style="opacity:.4" fill="#fefffe" d="M 298.5,121.5 C 297.833,122.167 297.833,122.167 298.5,121.5 Z"/></g>
<g><path style="opacity:.4" fill="#fefffe" d="M 60.5,122.5 C 61.8333,123.167 61.8333,123.167 60.5,122.5 Z"/></g>
<g><path style="opacity:.4" fill="#fefffe" d="M 122.5,123.5 C 123.833,124.167 123.833,124.167 122.5,123.5 Z"/></g>
<g><path style="opacity:.4" fill="#fefffe" d="M 239.5,123.5 C 238.833,124.167 238.833,124.167 239.5,123.5 Z"/></g>
<g><path style="opacity:.4" fill="#fefffe" d="M 299.5,123.5 C 298.833,124.167 298.833,124.167 299.5,123.5 Z"/></g>
<g><path style="opacity:.4" fill="#fefffe" d="M 328.5,124.5 C 327.833,125.167 327.833,125.167 328.5,124.5 Z"/></g>
<g><path style="opacity:.4" fill="#fefffe" d="M 68.5,126.5 C 67.8333,125.167 67.8333,125.167 68.5,126.5 Z"/></g>
<g><path style="opacity:.4" fill="#fefffe" d="M 226.5,125.5 C 227.833,126.167 227.833,126.167 226.5,125.5 Z"/></g>
<g><path style="opacity:.4" fill="#fefffe" d="M 293.5,125.5 C 294.833,126.167 294.833,126.167 293.5,125.5 Z"/></g>
<g><path style="opacity:.4" fill="#fefffe" d="M 230.5,126.5 C 231.833,127.167 231.833,127.167 230.5,126.5 Z"/></g>
<g><path style="opacity:.4" fill="#fefffe" d="M 117.5,128.5 C 118.833,129.167 118.833,129.167 117.5,128.5 Z"/></g>
<g><path style="opacity:.4" fill="#fefffe" d="M 302.5,128.5 C 301.833,129.167 301.833,129.167 302.5,128.5 Z"/></g>
<g><path style="opacity:.4" fill="#fefffe" d="M 320.5,128.5 C 321.833,129.167 321.833,129.167 320.5,128.5 Z"/></g>
<g><path style="opacity:.4" fill="#fefffe" d="M 84.5,129.5 C 85.8333,130.167 85.8333,130.167 84.5,129.5 Z"/></g>
<g><path style="opacity:.4" fill="#fefffe" d="M 115.5,129.5 C 116.833,130.167 116.833,130.167 115.5,129.5 Z"/></g>
<g><path style="opacity:.4" fill="#fefffe" d="M 39.5,131.5 C 38.8333,130.167 38.8333,130.167 39.5,131.5 Z"/></g>
<g><path style="opacity:.4" fill="#fefffe" d="M 195.5,130.5 C 194.833,131.167 194.833,131.167 195.5,130.5 Z"/></g>
<g><path style="opacity:.4" fill="#fefffe" d="M 303.5,130.5 C 302.833,131.167 302.833,131.167 303.5,130.5 Z"/></g>
<g><path style="opacity:.4" fill="#fefffe" d="M 276.5,131.5 C 275.833,132.167 275.833,132.167 276.5,131.5 Z"/></g>
<g><path style="opacity:.4" fill="#fefffe" d="M 332.5,131.5 C 331.833,132.167 331.833,132.167 332.5,131.5 Z"/></g>
<g><path style="opacity:.4" fill="#fefffe" d="M 38.5,133.5 C 37.8333,132.167 37.8333,132.167 38.5,133.5 Z"/></g>
<g><path style="opacity:.4" fill="#fefffe" d="M 82.5,132.5 C 83.8333,133.167 83.8333,133.167 82.5,132.5 Z"/></g>
<g><path style="opacity:.4" fill="#fefffe" d="M 92.5,134.5 C 91.8333,133.167 91.8333,133.167 92.5,134.5 Z"/></g>
<g><path style="opacity:.4" fill="#fefffe" d="M 238.5,133.5 C 239.833,134.167 239.833,134.167 238.5,133.5 Z"/></g>
<g><path style="opacity:.4" fill="#fefffe" d="M 350.5,133.5 C 351.833,134.167 351.833,134.167 350.5,133.5 Z"/></g>
<g><path style="opacity:.4" fill="#fefffe" d="M 21.5,135.5 C 24.091,136.928 25.7576,139.095 26.5,142C 17.2148,169.392 12.8814,197.726 13.5,227C 13.8161,251.694 16.6494,275.194 22,297.5C 24.852,302.424 24.1853,307.09 20,311.5C 19.6667,311.167 19.3333,310.833 19,310.5C 17.2151,311.24 15.3817,311.907 13.5,312.5C 13.5766,310.69 12.4099,309.356 10,308.5C 5.04075,290.342 1.54075,272.342 -0.5,254.5C -0.5,254.167 -0.5,253.833 -0.5,253.5C 0.833333,252.5 0.833333,251.5 -0.5,250.5C -0.5,232.833 -0.5,215.167 -0.5,197.5C 0.240489,192.814 0.907155,187.98 1.5,183C 1.3552,182.228 1.02186,181.561 0.5,181C 2.58891,174.826 4.25558,168.493 5.5,162C 5.3552,161.228 5.02186,160.561 4.5,160C 6.52971,156.411 7.86305,152.578 8.5,148.5C 10.01,145.317 11.3433,141.984 12.5,138.5C 15.0218,135.659 18.0218,134.659 21.5,135.5 Z"/></g>
<g><path style="opacity:.4" fill="#fefffe" d="M 21.5,134.5 C 22.8333,135.167 22.8333,135.167 21.5,134.5 Z"/></g>
<g><path style="opacity:.4" fill="#fefffe" d="M 125.5,135.5 C 124.833,134.167 124.833,134.167 125.5,135.5 Z"/></g>
<g><path style="opacity:.4" fill="#fefffe" d="M 154.5,134.5 C 155.833,135.167 155.833,135.167 154.5,134.5 Z"/></g>
<g><path style="opacity:.4" fill="#fefffe" d="M 111.5,135.5 C 112.833,136.167 112.833,136.167 111.5,135.5 Z"/></g>
<g><path style="opacity:.4" fill="#fefffe" d="M 152.5,135.5 C 153.833,136.167 153.833,136.167 152.5,135.5 Z"/></g>
<g><path style="opacity:.4" fill="#fefffe" d="M 264.5,136.5 C 263.833,135.167 263.833,135.167 264.5,136.5 Z"/></g>
<g><path style="opacity:.4" fill="#fefffe" d="M 280.5,151.5 C 281.264,154.018 282.264,156.351 283.5,158.5C 283.328,159.492 283.662,160.158 284.5,160.5C 287.428,167.364 290.095,174.364 292.5,181.5C 292.263,182.791 292.596,183.791 293.5,184.5C 294.209,188.037 295.209,191.704 296.5,195.5C 296.818,196.647 297.484,197.481 298.5,198C 298.043,198.414 297.709,198.914 297.5,199.5C 300.685,209.883 303.018,220.217 304.5,230.5C 305.851,238.292 307.518,245.958 309.5,253.5C 308.398,256.004 308.731,258.504 310.5,261C 309.13,263.833 309.464,266.5 311.5,269C 310.183,271.937 310.183,274.77 311.5,277.5C 314.069,318.659 312.235,358.992 306,398.5C 304.431,406.094 302.598,413.594 300.5,421C 300.833,421.333 301.167,421.667 301.5,422C 299.573,424.289 298.239,426.456 297.5,428.5C 294.605,428.761 291.605,428.428 288.5,427.5C 288.5,426.167 287.833,425.5 286.5,425.5C 286.5,422.5 286.5,419.5 286.5,416.5C 287.99,412.058 288.99,407.391 289.5,402.5C 297.04,364.228 299.54,325.228 297,285.5C 296.393,278.494 295.727,271.494 295,264.5C 293.313,262.832 293.146,260.999 294.5,259C 294.259,257.016 293.592,255.183 292.5,253.5C 292.987,252.554 293.32,251.554 293.5,250.5C 292.334,244.168 291.167,237.835 290,231.5C 288.461,230.454 288.295,229.121 289.5,227.5C 288.792,224.542 287.792,221.709 286.5,219C 286.833,218.667 287.167,218.333 287.5,218C 286.901,216.378 286.234,214.878 285.5,213.5C 285.58,210.219 284.913,207.219 283.5,204.5C 283.587,201.402 283.087,201.068 282,203.5C 281.504,201.965 281.67,200.465 282.5,199C 280.741,194.416 279.075,189.916 277.5,185.5C 276.464,179.715 274.464,174.382 271.5,169.5C 269.341,162.512 266.341,156.512 262.5,151.5C 260.913,148.081 260.247,144.415 260.5,140.5C 261.338,140.158 261.672,139.492 261.5,138.5C 262.71,138.068 263.71,137.401 264.5,136.5C 266.854,135.316 269.187,135.482 271.5,137C 274.901,141.646 277.901,146.479 280.5,151.5 Z"/></g>
<g><path style="opacity:.4" fill="#fefffe" d="M 324.5,136.5 C 325.833,137.167 325.833,137.167 324.5,136.5 Z"/></g>
<g><path style="opacity:.4" fill="#fefffe" d="M 12.5,138.5 C 11.8333,137.167 11.8333,137.167 12.5,138.5 Z"/></g>
<g><path style="opacity:.4" fill="#fefffe" d="M 109.5,137.5 C 110.833,138.167 110.833,138.167 109.5,137.5 Z"/></g>
<g><path style="opacity:.4" fill="#fefffe" d="M 121.5,138.5 C 120.833,137.167 120.833,137.167 121.5,138.5 Z"/></g>
<g><path style="opacity:.4" fill="#fefffe" d="M 214.5,137.5 C 213.833,138.167 213.833,138.167 214.5,137.5 Z"/></g>
<g><path style="opacity:.4" fill="#fefffe" d="M 261.5,138.5 C 260.833,137.167 260.833,137.167 261.5,138.5 Z"/></g>
<g><path style="opacity:.4" fill="#fefffe" d="M 280.5,137.5 C 279.833,138.167 279.833,138.167 280.5,137.5 Z"/></g>
<g><path style="opacity:.4" fill="#fefffe" d="M 79.5,138.5 C 80.8333,139.167 80.8333,139.167 79.5,138.5 Z"/></g>
<g><path style="opacity:.4" fill="#fefffe" d="M 108.5,138.5 C 108.833,138.5 109.167,138.5 109.5,138.5C 109.315,139.17 108.981,139.17 108.5,138.5 Z"/></g>
<g><path style="opacity:.4" fill="#fefffe" d="M 216.5,138.5 C 215.833,139.167 215.833,139.167 216.5,138.5 Z"/></g>
<g><path style="opacity:.4" fill="#fefffe" d="M 335.5,138.5 C 334.833,139.167 334.833,139.167 335.5,138.5 Z"/></g>
<g><path style="opacity:.4" fill="#fefffe" d="M 145.5,139.5 C 146.833,140.167 146.833,140.167 145.5,139.5 Z"/></g>
<g><path style="opacity:.4" fill="#fefffe" d="M 260.5,140.5 C 259.833,139.167 259.833,139.167 260.5,140.5 Z"/></g>
<g><path style="opacity:.4" fill="#fefffe" d="M 281.5,139.5 C 280.833,140.167 280.833,140.167 281.5,139.5 Z"/></g>
<g><path style="opacity:.4" fill="#fefffe" d="M 107.5,140.5 C 108.833,141.167 108.833,141.167 107.5,140.5 Z"/></g>
<g><path style="opacity:.4" fill="#fefffe" d="M 143.5,140.5 C 144.833,141.167 144.833,141.167 143.5,140.5 Z"/></g>
<g><path style="opacity:.4" fill="#fefffe" d="M 106.5,141.5 C 106.833,141.5 107.167,141.5 107.5,141.5C 107.315,142.17 106.981,142.17 106.5,141.5 Z"/></g>
<g><path style="opacity:.4" fill="#fefffe" d="M 220.5,141.5 C 219.833,142.167 219.833,142.167 220.5,141.5 Z"/></g>
<g><path style="opacity:.4" fill="#fefffe" d="M 222.5,142.5 C 221.833,143.167 221.833,143.167 222.5,142.5 Z"/></g>
<g><path style="opacity:.4" fill="#fefffe" d="M 327.5,142.5 C 328.833,143.167 328.833,143.167 327.5,142.5 Z"/></g>
<g><path style="opacity:.4" fill="#fefffe" d="M 214.5,151.5 C 216.181,153.008 218.181,154.008 220.5,154.5C 220.833,155.5 221.5,156.167 222.5,156.5C 222.842,157.338 223.508,157.672 224.5,157.5C 225.5,159.167 226.833,160.5 228.5,161.5C 228.842,162.338 229.508,162.672 230.5,162.5C 232.453,166.12 235.119,169.12 238.5,171.5C 238.427,173.027 239.094,174.027 240.5,174.5C 242.076,177.926 243.909,181.26 246,184.5C 246.75,185.126 247.584,185.626 248.5,186C 248.167,186.333 247.833,186.667 247.5,187C 249.96,192.255 252.293,197.422 254.5,202.5C 254.595,204.786 255.262,206.786 256.5,208.5C 258.931,218.654 260.931,228.654 262.5,238.5C 264.059,248.714 265.726,258.88 267.5,269C 267.5,296 267.5,323 267.5,350C 265.26,363.551 263.26,378.051 261.5,393.5C 258.201,412.05 253.534,430.05 247.5,447.5C 247.833,448.167 248.167,448.833 248.5,449.5C 248.154,450.696 247.654,450.696 247,449.5C 245.572,454.185 243.739,458.685 241.5,463C 240.034,463.635 238.7,464.469 237.5,465.5C 235.324,465.304 232.991,464.637 230.5,463.5C 230.047,462.542 229.381,461.708 228.5,461C 228.671,457.367 229.171,453.533 230,449.5C 230.333,449.833 230.667,450.167 231,450.5C 234.301,441.279 237.468,431.446 240.5,421C 240.265,420.127 239.931,419.293 239.5,418.5C 240.167,418.167 240.833,417.833 241.5,417.5C 253.624,363.629 256.624,308.796 250.5,253C 249.617,247.717 248.617,242.55 247.5,237.5C 245.692,225.586 242.692,214.253 238.5,203.5C 236.784,197.065 233.784,191.398 229.5,186.5C 228.262,183.262 226.262,180.596 223.5,178.5C 221.522,174.522 218.522,171.522 214.5,169.5C 200.896,158.745 185.229,155.578 167.5,160C 165.685,160.757 164.019,161.59 162.5,162.5C 159.783,163.811 156.95,164.811 154,165.5C 153.583,164.244 152.75,163.577 151.5,163.5C 150.524,162.185 149.524,160.852 148.5,159.5C 149.747,157.958 149.747,156.458 148.5,155C 150.041,153.629 151.375,152.129 152.5,150.5C 154.75,149.87 156.75,148.87 158.5,147.5C 160.582,147.376 162.082,146.376 163,144.5C 163.561,145.022 164.228,145.355 165,145.5C 167.135,144.873 169.302,144.373 171.5,144C 179.281,143.614 186.948,143.448 194.5,143.5C 198.932,145.02 203.265,146.686 207.5,148.5C 208.167,148.167 208.833,147.833 209.5,147.5C 210.053,149.396 211.72,150.73 214.5,151.5 Z"/></g>
<g><path style="opacity:.4" fill="#fefffe" d="M 136.5,145.5 C 137.833,146.167 137.833,146.167 136.5,145.5 Z"/></g>
<g><path style="opacity:.4" fill="#fefffe" d="M 226.5,145.5 C 225.833,146.167 225.833,146.167 226.5,145.5 Z"/></g>
<g><path style="opacity:.4" fill="#fefffe" d="M 284.5,145.5 C 283.833,146.167 283.833,146.167 284.5,145.5 Z"/></g>
<g><path style="opacity:.4" fill="#fefffe" d="M 103.5,146.5 C 104.833,147.167 104.833,147.167 103.5,146.5 Z"/></g>
<g><path style="opacity:.4" fill="#fefffe" d="M 158.5,147.5 C 157.833,146.167 157.833,146.167 158.5,147.5 Z"/></g>
<g><path style="opacity:.4" fill="#fefffe" d="M 249.5,146.5 C 250.833,147.167 250.833,147.167 249.5,146.5 Z"/></g>
<g><path style="opacity:.4" fill="#fefffe" d="M 338.5,146.5 C 337.833,147.167 337.833,147.167 338.5,146.5 Z"/></g>
<g><path style="opacity:.4" fill="#fefffe" d="M 8.5,148.5 C 7.83333,147.167 7.83333,147.167 8.5,148.5 Z"/></g>
<g><path style="opacity:.4" fill="#fefffe" d="M 102.5,148.5 C 103.833,149.167 103.833,149.167 102.5,148.5 Z"/></g>
<g><path style="opacity:.4" fill="#fefffe" d="M 112.5,149.5 C 111.833,148.167 111.833,148.167 112.5,149.5 Z"/></g>
<g><path style="opacity:.4" fill="#fefffe" d="M 135.5,148.5 C 136.833,149.167 136.833,149.167 135.5,148.5 Z"/></g>
<g><path style="opacity:.4" fill="#fefffe" d="M 229.5,148.5 C 228.833,149.167 228.833,149.167 229.5,148.5 Z"/></g>
<g><path style="opacity:.4" fill="#fefffe" d="M 83.5,150.5 C 82.8333,149.167 82.8333,149.167 83.5,150.5 Z"/></g>
<g><path style="opacity:.4" fill="#fefffe" d="M 152.5,150.5 C 151.833,149.167 151.833,149.167 152.5,150.5 Z"/></g>
<g><path style="opacity:.4" fill="#fefffe" d="M 252.5,149.5 C 253.833,150.167 253.833,150.167 252.5,149.5 Z"/></g>
<g><path style="opacity:.4" fill="#fefffe" d="M 214.5,150.5 C 215.833,151.167 215.833,151.167 214.5,150.5 Z"/></g>
<g><path style="opacity:.4" fill="#fefffe" d="M 280.5,150.5 C 281.833,151.167 281.833,151.167 280.5,150.5 Z"/></g>
<g><path style="opacity:.4" fill="#fefffe" d="M 56.5,152.5 C 55.8333,151.167 55.8333,151.167 56.5,152.5 Z"/></g>
<g><path style="opacity:.4" fill="#fefffe" d="M 82.5,152.5 C 81.8333,151.167 81.8333,151.167 82.5,152.5 Z"/></g>
<g><path style="opacity:.4" fill="#fefffe" d="M 110.5,152.5 C 109.833,151.167 109.833,151.167 110.5,152.5 Z"/></g>
<g><path style="opacity:.4" fill="#fefffe" d="M 232.5,151.5 C 231.833,152.167 231.833,152.167 232.5,151.5 Z"/></g>
<g><path style="opacity:.4" fill="#fefffe" d="M 253.5,151.5 C 254.833,152.167 254.833,152.167 253.5,151.5 Z"/></g>
<g><path style="opacity:.4" fill="#fefffe" d="M 262.5,151.5 C 261.833,152.167 261.833,152.167 262.5,151.5 Z"/></g>
<g><path style="opacity:.4" fill="#fefffe" d="M 305.5,151.5 C 306.833,152.167 306.833,152.167 305.5,151.5 Z"/></g>
<g><path style="opacity:.4" fill="#fefffe" d="M 72.5,153.5 C 73.8333,154.167 73.8333,154.167 72.5,153.5 Z"/></g>
<g><path style="opacity:.4" fill="#fefffe" d="M 109.5,154.5 C 108.833,153.167 108.833,153.167 109.5,154.5 Z"/></g>
<g><path style="opacity:.4" fill="#fefffe" d="M 220.5,153.5 C 221.833,154.167 221.833,154.167 220.5,153.5 Z"/></g>
<g><path style="opacity:.4" fill="#fefffe" d="M 254.5,153.5 C 255.833,154.167 255.833,154.167 254.5,153.5 Z"/></g>
<g><path style="opacity:.4" fill="#fefffe" d="M 47.5,154.5 C 48.8333,155.167 48.8333,155.167 47.5,154.5 Z"/></g>
<g><path style="opacity:.4" fill="#fefffe" d="M 71.5,155.5 C 72.8333,156.167 72.8333,156.167 71.5,155.5 Z"/></g>
<g><path style="opacity:.4" fill="#fefffe" d="M 222.5,155.5 C 223.833,156.167 223.833,156.167 222.5,155.5 Z"/></g>
<g><path style="opacity:.4" fill="#fefffe" d="M 224.5,156.5 C 225.833,157.167 225.833,157.167 224.5,156.5 Z"/></g>
<g><path style="opacity:.4" fill="#fefffe" d="M 126.5,157.5 C 127.833,158.167 127.833,158.167 126.5,157.5 Z"/></g>
<g><path style="opacity:.4" fill="#fefffe" d="M 283.5,157.5 C 284.833,158.167 284.833,158.167 283.5,157.5 Z"/></g>
<g><path style="opacity:.4" fill="#fefffe" d="M 333.5,157.5 C 334.833,158.167 334.833,158.167 333.5,157.5 Z"/></g>
<g><path style="opacity:.4" fill="#fefffe" d="M 79.5,159.5 C 78.8333,158.167 78.8333,158.167 79.5,159.5 Z"/></g>
<g><path style="opacity:.4" fill="#fefffe" d="M 284.5,159.5 C 285.833,160.167 285.833,160.167 284.5,159.5 Z"/></g>
<g><path style="opacity:.4" fill="#fefffe" d="M 358.5,159.5 C 359.833,160.167 359.833,160.167 358.5,159.5 Z"/></g>
<g><path style="opacity:.4" fill="#fefffe" d="M 228.5,160.5 C 229.833,161.167 229.833,161.167 228.5,160.5 Z"/></g>
<g><path style="opacity:.4" fill="#fefffe" d="M 230.5,161.5 C 231.833,162.167 231.833,162.167 230.5,161.5 Z"/></g>
<g><path style="opacity:.4" fill="#fefffe" d="M 334.5,161.5 C 335.833,162.167 335.833,162.167 334.5,161.5 Z"/></g>
<g><path style="opacity:.4" fill="#fefffe" d="M 162.5,162.5 C 163.833,163.167 163.833,163.167 162.5,162.5 Z"/></g>
<g><path style="opacity:.4" fill="#fefffe" d="M 151.5,163.5 C 150.833,164.167 150.833,164.167 151.5,163.5 Z"/></g>
<g><path style="opacity:.4" fill="#fefffe" d="M 242.5,163.5 C 241.833,164.167 241.833,164.167 242.5,163.5 Z"/></g>
<g><path style="opacity:.4" fill="#fefffe" d="M 343.5,163.5 C 342.833,164.167 342.833,164.167 343.5,163.5 Z"/></g>
<g><path style="opacity:.4" fill="#fefffe" d="M 292.5,164.5 C 291.833,165.167 291.833,165.167 292.5,164.5 Z"/></g>
<g><path style="opacity:.4" fill="#fefffe" d="M 120.5,166.5 C 121.833,167.167 121.833,167.167 120.5,166.5 Z"/></g>
<g><path style="opacity:.4" fill="#fefffe" d="M 263.5,168.5 C 264.833,169.167 264.833,169.167 263.5,168.5 Z"/></g>
<g><path style="opacity:.4" fill="#fefffe" d="M 295.5,168.5 C 294.833,169.167 294.833,169.167 295.5,168.5 Z"/></g>
<g><path style="opacity:.4" fill="#fefffe" d="M 208.5,178.5 C 210.205,180.192 212.205,181.525 214.5,182.5C 215.5,184.167 216.833,185.5 218.5,186.5C 219.5,189.5 221.5,191.5 224.5,192.5C 224.328,193.492 224.662,194.158 225.5,194.5C 226.763,199.032 228.597,203.365 231,207.5C 231.383,206.944 231.883,206.611 232.5,206.5C 231.128,208.477 231.462,210.144 233.5,211.5C 239.75,234.083 243.417,257.417 244.5,281.5C 244.645,287.257 241.979,290.59 236.5,291.5C 236.167,290.167 235.833,290.167 235.5,291.5C 235.167,291.5 234.833,291.5 234.5,291.5C 233.992,289.767 233.159,289.434 232,290.5C 231.333,289.167 230.667,287.833 230,286.5C 229.619,262.851 225.952,239.518 219,216.5C 217.435,212.598 215.602,208.931 213.5,205.5C 208.505,195.83 200.838,189.497 190.5,186.5C 186.019,185.352 181.352,185.185 176.5,186C 174.548,186.366 172.882,187.199 171.5,188.5C 171.167,187.167 170.833,187.167 170.5,188.5C 168.973,188.427 167.973,189.094 167.5,190.5C 164.865,191.473 162.865,193.14 161.5,195.5C 159.14,196.865 157.473,198.865 156.5,201.5C 155.094,201.973 154.427,202.973 154.5,204.5C 152.466,206.365 151.799,208.532 152.5,211C 151.484,211.519 150.818,212.353 150.5,213.5C 149.137,219.102 148.137,224.769 147.5,230.5C 148.584,243.713 150.251,256.713 152.5,269.5C 152.421,277.813 153.088,286.146 154.5,294.5C 154.616,300.864 151.283,303.697 144.5,303C 143.069,302.535 141.903,301.701 141,300.5C 139.27,295.756 138.103,291.09 137.5,286.5C 138.022,285.393 138.355,284.226 138.5,283C 137.823,275.647 136.823,268.48 135.5,261.5C 135.436,258.808 135.103,256.141 134.5,253.5C 133.653,242.176 133.486,230.842 134,219.5C 135.243,211.857 137.409,204.524 140.5,197.5C 141.401,196.71 142.068,195.71 142.5,194.5C 143.401,193.71 144.068,192.71 144.5,191.5C 146.367,189.031 148.033,186.364 149.5,183.5C 152.419,182.087 154.919,180.087 157,177.5C 158.313,178.287 159.48,177.954 160.5,176.5C 171.541,169.842 183.041,168.509 195,172.5C 195.333,172.167 195.667,171.833 196,171.5C 198.571,173.353 201.238,175.019 204,176.5C 205.016,175.366 205.683,175.699 206,177.5C 206.333,177.167 206.667,176.833 207,176.5C 207.278,177.416 207.778,178.082 208.5,178.5 Z"/></g>
<g><path style="opacity:.4" fill="#fefffe" d="M 214.5,169.5 C 213.833,170.167 213.833,170.167 214.5,169.5 Z"/></g>
<g><path style="opacity:.4" fill="#fefffe" d="M 271.5,169.5 C 270.833,170.167 270.833,170.167 271.5,169.5 Z"/></g>
<g><path style="opacity:.4" fill="#fefffe" d="M 320.5,169.5 C 319.833,170.167 319.833,170.167 320.5,169.5 Z"/></g>
<g><path style="opacity:.4" fill="#fefffe" d="M 238.5,170.5 C 239.833,171.167 239.833,171.167 238.5,170.5 Z"/></g>
<g><path style="opacity:.4" fill="#fefffe" d="M 137.5,176.5 C 137.328,177.492 137.662,178.158 138.5,178.5C 138.5,179.167 138.5,179.833 138.5,180.5C 137.662,180.842 137.328,181.508 137.5,182.5C 131.354,191.433 127.854,201.433 127,212.5C 126.525,218.835 126.025,225.169 125.5,231.5C 126.217,254.534 128.217,277.534 131.5,300.5C 131.588,311.051 131.421,321.718 131,332.5C 130.663,342.362 129.163,352.029 126.5,361.5C 126.709,362.086 127.043,362.586 127.5,363C 124.484,369.547 122.151,376.38 120.5,383.5C 119.069,384.78 118.402,386.447 118.5,388.5C 116.063,392.334 114.563,396.334 114,400.5C 113.667,400.167 113.333,399.833 113,399.5C 110.587,404.263 108.087,408.929 105.5,413.5C 104.167,413.833 104.167,414.167 105.5,414.5C 105.672,415.492 105.338,416.158 104.5,416.5C 104.167,415.167 103.833,415.167 103.5,416.5C 102.662,416.842 102.328,417.508 102.5,418.5C 99.7551,422.491 96.4218,426.658 92.5,431C 88.673,431.976 85.3396,431.143 82.5,428.5C 82.1231,426.742 81.4565,425.075 80.5,423.5C 83.3507,418.713 86.3507,414.046 89.5,409.5C 90.9335,408.167 92.2668,406.667 93.5,405C 93.1667,404.667 92.8333,404.333 92.5,404C 94.6709,402.826 95.6709,400.993 95.5,398.5C 96.9063,398.027 97.573,397.027 97.5,395.5C 100.492,392.014 102.658,388.347 104,384.5C 106.34,378.934 108.174,373.601 109.5,368.5C 111.767,362.777 113.434,356.777 114.5,350.5C 114.291,349.914 113.957,349.414 113.5,349C 115.101,345.733 115.934,342.233 116,338.5C 116.167,331.333 116.333,324.167 116.5,317C 114.614,284.94 112.614,252.94 110.5,221C 111.954,214.218 113.287,207.384 114.5,200.5C 113.313,198.79 113.646,197.29 115.5,196C 115.355,195.228 115.022,194.561 114.5,194C 117.634,188.788 120.3,183.288 122.5,177.5C 127.37,170.196 132.37,169.863 137.5,176.5 Z"/></g>
<g><path style="opacity:.4" fill="#fefffe" d="M 116.5,172.5 C 117.833,173.167 117.833,173.167 116.5,172.5 Z"/></g>
<g><path style="opacity:.4" fill="#fefffe" d="M 246.5,172.5 C 245.833,173.167 245.833,173.167 246.5,172.5 Z"/></g>
<g><path style="opacity:.4" fill="#fefffe" d="M 98.5,174.5 C 97.8333,173.167 97.8333,173.167 98.5,174.5 Z"/></g>
<g><path style="opacity:.4" fill="#fefffe" d="M 240.5,173.5 C 241.833,174.167 241.833,174.167 240.5,173.5 Z"/></g>
<g><path style="opacity:.4" fill="#fefffe" d="M 97.5,176.5 C 96.8333,175.167 96.8333,175.167 97.5,176.5 Z"/></g>
<g><path style="opacity:.4" fill="#fefffe" d="M 137.5,175.5 C 138.833,176.167 138.833,176.167 137.5,175.5 Z"/></g>
<g><path style="opacity:.4" fill="#fefffe" d="M 160.5,176.5 C 159.833,175.167 159.833,175.167 160.5,176.5 Z"/></g>
<g><path style="opacity:.4" fill="#fefffe" d="M 72.5,177.5 C 71.8333,176.167 71.8333,176.167 72.5,177.5 Z"/></g>
<g><path style="opacity:.4" fill="#fefffe" d="M 122.5,177.5 C 121.833,176.167 121.833,176.167 122.5,177.5 Z"/></g>
<g><path style="opacity:.4" fill="#fefffe" d="M 138.5,177.5 C 139.833,178.167 139.833,178.167 138.5,177.5 Z"/></g>
<g><path style="opacity:.4" fill="#fefffe" d="M 208.5,177.5 C 209.833,178.167 209.833,178.167 208.5,177.5 Z"/></g>
<g><path style="opacity:.4" fill="#fefffe" d="M 223.5,178.5 C 222.833,179.167 222.833,179.167 223.5,178.5 Z"/></g>
<g><path style="opacity:.4" fill="#fefffe" d="M 250.5,178.5 C 249.833,179.167 249.833,179.167 250.5,178.5 Z"/></g>
<g><path style="opacity:.4" fill="#fefffe" d="M 138.5,180.5 C 139.833,181.167 139.833,181.167 138.5,180.5 Z"/></g>
<g><path style="opacity:.4" fill="#fefffe" d="M 251.5,180.5 C 250.833,181.167 250.833,181.167 251.5,180.5 Z"/></g>
<g><path style="opacity:.4" fill="#fefffe" d="M 292.5,180.5 C 293.833,181.167 293.833,181.167 292.5,180.5 Z"/></g>
<g><path style="opacity:.4" fill="#fefffe" d="M 214.5,181.5 C 215.833,182.167 215.833,182.167 214.5,181.5 Z"/></g>
<g><path style="opacity:.4" fill="#fefffe" d="M 300.5,181.5 C 299.833,182.167 299.833,182.167 300.5,181.5 Z"/></g>
<g><path style="opacity:.4" fill="#fefffe" d="M 137.5,182.5 C 138.833,183.167 138.833,183.167 137.5,182.5 Z"/></g>
<g><path style="opacity:.4" fill="#fefffe" d="M 149.5,183.5 C 148.833,182.167 148.833,182.167 149.5,183.5 Z"/></g>
<g><path style="opacity:.4" fill="#fefffe" d="M 293.5,183.5 C 294.833,184.167 294.833,184.167 293.5,183.5 Z"/></g>
<g><path style="opacity:.4" fill="#fefffe" d="M 218.5,185.5 C 219.833,186.167 219.833,186.167 218.5,185.5 Z"/></g>
<g><path style="opacity:.4" fill="#fefffe" d="M 277.5,185.5 C 276.833,186.167 276.833,186.167 277.5,185.5 Z"/></g>
<g><path style="opacity:.4" fill="#fefffe" d="M 190.5,186.5 C 189.833,187.167 189.833,187.167 190.5,186.5 Z"/></g>
<g><path style="opacity:.4" fill="#fefffe" d="M 229.5,186.5 C 228.833,187.167 228.833,187.167 229.5,186.5 Z"/></g>
<g><path style="opacity:.4" fill="#fefffe" d="M 39.5,187.5 C 40.8333,188.167 40.8333,188.167 39.5,187.5 Z"/></g>
<g><path style="opacity:.4" fill="#fefffe" d="M 71.5,188.5 C 70.8333,189.167 70.8333,189.167 71.5,188.5 Z"/></g>
<g><path style="opacity:.4" fill="#fefffe" d="M 170.5,188.5 C 170.833,188.5 171.167,188.5 171.5,188.5C 171.315,189.17 170.981,189.17 170.5,188.5 Z"/></g>
<g><path style="opacity:.4" fill="#fefffe" d="M 144.5,191.5 C 143.833,190.167 143.833,190.167 144.5,191.5 Z"/></g>
<g><path style="opacity:.4" fill="#fefffe" d="M 167.5,190.5 C 168.833,191.167 168.833,191.167 167.5,190.5 Z"/></g>
<g><path style="opacity:.4" fill="#fefffe" d="M 224.5,191.5 C 225.833,192.167 225.833,192.167 224.5,191.5 Z"/></g>
<g><path style="opacity:.4" fill="#fefffe" d="M 142.5,194.5 C 141.833,193.167 141.833,193.167 142.5,194.5 Z"/></g>
<g><path style="opacity:.4" fill="#fefffe" d="M 225.5,193.5 C 226.833,194.167 226.833,194.167 225.5,193.5 Z"/></g>
<g><path style="opacity:.4" fill="#fefffe" d="M 344.5,194.5 C 345.833,195.167 345.833,195.167 344.5,194.5 Z"/></g>
<g><path style="opacity:.4" fill="#fefffe" d="M 161.5,195.5 C 162.833,196.167 162.833,196.167 161.5,195.5 Z"/></g>
<g><path style="opacity:.4" fill="#fefffe" d="M 140.5,197.5 C 139.833,196.167 139.833,196.167 140.5,197.5 Z"/></g>
<g><path style="opacity:.4" fill="#fefffe" d="M 210.5,408.5 C 209.623,411.502 208.623,414.835 207.5,418.5C 205.265,423.205 203.598,428.205 202.5,433.5C 201.185,435.919 200.185,438.253 199.5,440.5C 196.665,446.305 193.998,452.305 191.5,458.5C 188.642,461.434 187.142,464.767 187,468.5C 182.664,472.953 177.83,473.62 172.5,470.5C 170.999,466.34 171.333,462.34 173.5,458.5C 174.906,458.027 175.573,457.027 175.5,455.5C 178.326,451.182 180.659,446.516 182.5,441.5C 187.23,431.772 191.23,421.272 194.5,410C 194.265,409.127 193.931,408.293 193.5,407.5C 193.846,406.304 194.346,406.304 195,407.5C 200.971,385.623 204.805,362.956 206.5,339.5C 206.46,337.571 206.127,335.738 205.5,334C 208.727,303.19 207.56,272.357 202,241.5C 201.275,238.21 200.108,235.21 198.5,232.5C 197.197,226.863 194.197,222.53 189.5,219.5C 189.591,217.302 188.925,216.969 187.5,218.5C 186.809,216.978 185.642,215.978 184,215.5C 182.011,216.12 180.178,216.453 178.5,216.5C 176.62,216.229 175.287,216.896 174.5,218.5C 171.088,222.057 169.421,226.39 169.5,231.5C 169.959,238.896 171.292,246.062 173.5,253C 172.978,253.561 172.645,254.228 172.5,255C 172.892,256.011 173.559,256.511 174.5,256.5C 173.978,257.607 173.645,258.774 173.5,260C 174.225,266.02 175.225,271.853 176.5,277.5C 177.232,288.492 177.899,299.492 178.5,310.5C 178.019,319.35 177.686,328.016 177.5,336.5C 176.949,340.718 174.616,343.384 170.5,344.5C 168.5,343.833 166.5,343.167 164.5,342.5C 162.123,337.937 161.623,333.271 163,328.5C 164.671,302.621 162.504,277.454 156.5,253C 156.833,252 157.167,251 157.5,250C 156.087,244.261 155.421,238.427 155.5,232.5C 155.904,228.46 155.904,224.627 155.5,221C 157.014,219.561 157.347,218.061 156.5,216.5C 156.846,215.304 157.346,215.304 158,216.5C 158.955,213.996 160.122,211.663 161.5,209.5C 162.833,208.833 163.833,207.833 164.5,206.5C 179.334,197.024 192.834,199.024 205,212.5C 212.419,223.341 216.753,235.007 218,247.5C 225.608,301.854 223.108,355.521 210.5,408.5 Z"/></g>
<g><path style="opacity:.4" fill="#fefffe" d="M 156.5,201.5 C 157.833,202.167 157.833,202.167 156.5,201.5 Z"/></g>
<g><path style="opacity:.4" fill="#fefffe" d="M 254.5,201.5 C 255.833,202.167 255.833,202.167 254.5,201.5 Z"/></g>
<g><path style="opacity:.4" fill="#fefffe" d="M 238.5,203.5 C 237.833,204.167 237.833,204.167 238.5,203.5 Z"/></g>
<g><path style="opacity:.4" fill="#fefffe" d="M 154.5,204.5 C 155.833,205.167 155.833,205.167 154.5,204.5 Z"/></g>
<g><path style="opacity:.4" fill="#fefffe" d="M 283.5,204.5 C 282.833,205.167 282.833,205.167 283.5,204.5 Z"/></g>
<g><path style="opacity:.4" fill="#fefffe" d="M 164.5,206.5 C 163.833,205.167 163.833,205.167 164.5,206.5 Z"/></g>
<g><path style="opacity:.4" fill="#fefffe" d="M 213.5,205.5 C 212.833,206.167 212.833,206.167 213.5,205.5 Z"/></g>
<g><path style="opacity:.4" fill="#fefffe" d="M 232.5,205.5 C 233.833,206.167 233.833,206.167 232.5,205.5 Z"/></g>
<g><path style="opacity:.4" fill="#fefffe" d="M 256.5,207.5 C 257.833,208.167 257.833,208.167 256.5,207.5 Z"/></g>
<g><path style="opacity:.4" fill="#fefffe" d="M 161.5,209.5 C 160.833,208.167 160.833,208.167 161.5,209.5 Z"/></g>
<g><path style="opacity:.4" fill="#fefffe" d="M 352.5,209.5 C 351.833,210.167 351.833,210.167 352.5,209.5 Z"/></g>
<g><path style="opacity:.4" fill="#fefffe" d="M 233.5,210.5 C 234.833,211.167 234.833,211.167 233.5,210.5 Z"/></g>
<g><path style="opacity:.4" fill="#fefffe" d="M 285.5,213.5 C 284.833,214.167 284.833,214.167 285.5,213.5 Z"/></g>
<g><path style="opacity:.4" fill="#fefffe" d="M 74.5,215.5 C 75.8333,216.167 75.8333,216.167 74.5,215.5 Z"/></g>
<g><path style="opacity:.4" fill="#fefffe" d="M 74.5,216.5 C 76.8151,217.584 78.6484,219.251 80,221.5C 80.3333,229.167 80.6667,236.833 81,244.5C 82.3593,246.257 82.526,248.257 81.5,250.5C 82.1968,259.89 83.8635,269.057 86.5,278C 85.9415,278.725 85.6082,279.558 85.5,280.5C 92.5064,313.997 87.6731,344.663 71,372.5C 70.5899,373.901 70.0899,375.234 69.5,376.5C 67.6736,378.147 66.3403,380.147 65.5,382.5C 62.5227,387.642 58.356,391.642 53,394.5C 47.2942,392.422 45.2942,388.422 47,382.5C 50.5255,378.289 53.0255,373.956 54.5,369.5C 55.3764,369.631 56.0431,369.298 56.5,368.5C 58.0795,364.919 60.0795,361.586 62.5,358.5C 64.0553,356.057 64.722,353.39 64.5,350.5C 66.7458,348.351 68.2458,345.684 69,342.5C 73.2294,327.44 74.5627,312.106 73,296.5C 71.0951,288.769 69.9284,281.103 69.5,273.5C 66.9426,256.927 65.776,240.261 66,223.5C 67.1965,219.134 70.0298,216.8 74.5,216.5 Z"/></g>
<g><path style="opacity:.4" fill="#fefffe" d="M 178.5,216.5 C 179.833,217.167 179.833,217.167 178.5,216.5 Z"/></g>
<g><path style="opacity:.4" fill="#fefffe" d="M 174.5,218.5 C 175.833,219.167 175.833,219.167 174.5,218.5 Z"/></g>
<g><path style="opacity:.4" fill="#fefffe" d="M 187.5,218.5 C 186.833,219.167 186.833,219.167 187.5,218.5 Z"/></g>
<g><path style="opacity:.4" fill="#fefffe" d="M 189.5,219.5 C 188.833,220.167 188.833,220.167 189.5,219.5 Z"/></g>
<g><path style="opacity:.4" fill="#fefffe" d="M 191.5,229.5 C 208.291,295.482 203.957,360.815 178.5,425.5C 175.214,433.524 171.214,442.358 166.5,452C 166.833,452.333 167.167,452.667 167.5,453C 164.04,456.584 162.04,460.584 161.5,465C 159.973,466.032 158.64,467.199 157.5,468.5C 152.148,470.659 148.148,469.159 145.5,464C 149.288,454.091 153.621,444.424 158.5,435C 157.167,433.16 157.334,432.66 159,433.5C 159.36,431.579 160.194,429.912 161.5,428.5C 161.291,427.914 160.957,427.414 160.5,427C 162.917,425.856 163.584,424.19 162.5,422C 165.728,418.044 167.728,413.544 168.5,408.5C 171.245,399.827 174.245,391.16 177.5,382.5C 177.376,381.893 177.043,381.56 176.5,381.5C 181.575,365.016 184.909,348.35 186.5,331.5C 185.574,329.23 185.24,327.063 185.5,325C 188.073,309.161 187.739,293.328 184.5,277.5C 184.987,276.554 185.32,275.554 185.5,274.5C 183.672,266.993 182.506,259.659 182,252.5C 181.697,250.112 180.863,247.945 179.5,246C 180.214,242.054 179.547,238.221 177.5,234.5C 180.462,227.674 185.129,226.008 191.5,229.5 Z"/></g>
<g><path style="opacity:.4" fill="#fefffe" d="M 191.5,228.5 C 192.833,229.167 192.833,229.167 191.5,228.5 Z"/></g>
<g><path style="opacity:.4" fill="#fefffe" d="M 266.5,228.5 C 265.833,229.167 265.833,229.167 266.5,228.5 Z"/></g>
<g><path style="opacity:.4" fill="#fefffe" d="M 198.5,232.5 C 197.833,233.167 197.833,233.167 198.5,232.5 Z"/></g>
<g><path style="opacity:.4" fill="#fefffe" d="M 358.5,232.5 C 357.833,233.167 357.833,233.167 358.5,232.5 Z"/></g>
<g><path style="opacity:.4" fill="#fefffe" d="M 363.5,233.5 C 362.833,234.167 362.833,234.167 363.5,233.5 Z"/></g>
<g><path style="opacity:.4" fill="#fefffe" d="M 102.5,236.5 C 103.833,237.167 103.833,237.167 102.5,236.5 Z"/></g>
<g><path style="opacity:.4" fill="#fefffe" d="M 247.5,237.5 C 246.833,238.167 246.833,238.167 247.5,237.5 Z"/></g>
<g><path style="opacity:.4" fill="#fefffe" d="M 312.5,237.5 C 311.833,238.167 311.833,238.167 312.5,237.5 Z"/></g>
<g><path style="opacity:.4" fill="#fefffe" d="M 55.5,354.5 C 54.7611,354.369 54.0944,354.536 53.5,355C 54.8331,356.84 54.6665,357.34 53,356.5C 50.7576,358.738 49.5909,361.071 49.5,363.5C 49.1667,362.167 48.8333,362.167 48.5,363.5C 47.6618,363.842 47.3284,364.508 47.5,365.5C 46.5987,366.29 45.9321,367.29 45.5,368.5C 44.7109,368.783 44.0442,369.283 43.5,370C 35.1713,372.015 31.6713,368.515 33,359.5C 35.0902,356.978 36.9235,354.312 38.5,351.5C 40.0075,349.819 41.0075,347.819 41.5,345.5C 42.3382,345.158 42.6716,344.492 42.5,343.5C 44.8279,341.206 45.6612,338.539 45,335.5C 45.3333,335.833 45.6667,336.167 46,336.5C 47.113,335.24 47.2797,334.073 46.5,333C 47.717,331.352 48.5503,329.519 49,327.5C 51.8996,312.802 52.2329,297.802 50,282.5C 49.6556,277.659 48.4889,273.159 46.5,269C 47.1771,266.018 47.1771,263.185 46.5,260.5C 41.9521,253.302 43.4521,247.635 51,243.5C 53.6095,243.653 55.9429,244.986 58,247.5C 62.8938,265.588 65.7271,284.588 66.5,304.5C 67.0102,322.072 63.0102,338.239 54.5,353C 55.056,353.383 55.3893,353.883 55.5,354.5 Z"/></g>
<g><path style="opacity:.4" fill="#fefffe" d="M 134.5,253.5 C 133.833,254.167 133.833,254.167 134.5,253.5 Z"/></g>
<g><path style="opacity:.4" fill="#fefffe" d="M 309.5,253.5 C 310.833,254.167 310.833,254.167 309.5,253.5 Z"/></g>
<g><path style="opacity:.4" fill="#fefffe" d="M 135.5,261.5 C 134.833,262.167 134.833,262.167 135.5,261.5 Z"/></g>
<g><path style="opacity:.4" fill="#fefffe" d="M 152.5,268.5 C 153.833,269.167 153.833,269.167 152.5,268.5 Z"/></g>
<g><path style="opacity:.4" fill="#fefffe" d="M 69.5,273.5 C 68.8333,274.167 68.8333,274.167 69.5,273.5 Z"/></g>
<g><path style="opacity:.4" fill="#fefffe" d="M 176.5,276.5 C 177.833,277.167 177.833,277.167 176.5,276.5 Z"/></g>
<g><path style="opacity:.4" fill="#fefffe" d="M 311.5,276.5 C 312.833,277.167 312.833,277.167 311.5,276.5 Z"/></g>
<g><path style="opacity:.4" fill="#fefffe" d="M 234.5,291.5 C 233.833,292.167 233.833,292.167 234.5,291.5 Z"/></g>
<g><path style="opacity:.4" fill="#fefffe" d="M 235.5,291.5 C 235.833,291.5 236.167,291.5 236.5,291.5C 236.315,292.17 235.981,292.17 235.5,291.5 Z"/></g>
<g><path style="opacity:.4" fill="#fefffe" d="M 154.5,294.5 C 155.833,295.167 155.833,295.167 154.5,294.5 Z"/></g>
<g><path style="opacity:.4" fill="#fefffe" d="M 237.5,388.5 C 233.833,389.833 230.167,389.833 226.5,388.5C 226.672,387.508 226.338,386.842 225.5,386.5C 225.279,385.265 224.612,384.265 223.5,383.5C 226.969,369.438 228.636,355.271 228.5,341C 229.878,331.602 230.711,322.102 231,312.5C 238.22,305.49 243.387,306.99 246.5,317C 244.811,334.896 242.811,352.896 240.5,371C 240.957,371.414 241.291,371.914 241.5,372.5C 240.439,377.984 239.106,383.317 237.5,388.5 Z"/></g>
<g><path style="opacity:.4" fill="#fefffe" d="M 97.5,313.5 C 96.8333,314.167 96.8333,314.167 97.5,313.5 Z"/></g>
<g><path style="opacity:.4" fill="#fefffe" d="M 25.5,321.5 C 24.8333,320.167 24.8333,320.167 25.5,321.5 Z"/></g>
<g><path style="opacity:.4" fill="#fefffe" d="M 143.5,386.5 C 138.704,399.978 132.704,413.478 125.5,427C 125.833,427.333 126.167,427.667 126.5,428C 124.072,429.018 122.738,430.852 122.5,433.5C 121.167,433.833 121.167,434.167 122.5,434.5C 121.833,435.5 121.167,436.5 120.5,437.5C 119.122,438.545 118.122,439.878 117.5,441.5C 116.662,441.842 116.328,442.508 116.5,443.5C 115.833,443.5 115.5,443.833 115.5,444.5C 113.664,446.588 111.331,447.921 108.5,448.5C 108.167,447.167 107.833,447.167 107.5,448.5C 107.167,448.5 106.833,448.5 106.5,448.5C 106.027,447.094 105.027,446.427 103.5,446.5C 102.883,444.771 101.883,443.271 100.5,442C 101.833,440.667 101.833,439.333 100.5,438C 104.433,434.792 107.433,430.292 109.5,424.5C 111.588,422.664 112.921,420.331 113.5,417.5C 114.338,417.158 114.672,416.492 114.5,415.5C 117.09,411.67 118.757,408.337 119.5,405.5C 121.373,404.104 121.706,402.437 120.5,400.5C 122.931,398.954 124.264,396.621 124.5,393.5C 126.204,390.061 127.538,386.395 128.5,382.5C 131.145,377.221 132.812,371.554 133.5,365.5C 134.404,364.791 134.737,363.791 134.5,362.5C 135.864,359.058 136.864,355.392 137.5,351.5C 137.457,350.584 137.124,349.917 136.5,349.5C 136.783,348.711 137.283,348.044 138,347.5C 138.674,340.335 139.84,333.335 141.5,326.5C 148.816,322.319 153.483,324.485 155.5,333C 153.133,350.685 149.133,368.518 143.5,386.5 Z"/></g>
<g><path style="opacity:.4" fill="#fefffe" d="M 141.5,326.5 C 140.833,325.167 140.833,325.167 141.5,326.5 Z"/></g>
<g><path style="opacity:.4" fill="#fefffe" d="M 23.5,327.5 C 22.8333,326.167 22.8333,326.167 23.5,327.5 Z"/></g>
<g><path style="opacity:.4" fill="#fefffe" d="M 99.5,335.5 C 98.8333,334.167 98.8333,334.167 99.5,335.5 Z"/></g>
<g><path style="opacity:.4" fill="#fefffe" d="M 99.5,335.5 C 103.177,336.677 106.177,338.844 108.5,342C 107.256,348.299 105.589,354.799 103.5,361.5C 102.218,365.399 100.551,369.233 98.5,373C 99.4581,374.147 99.1247,375.147 97.5,376C 98.8331,377.84 98.6665,378.34 97,377.5C 96.5357,378.094 96.369,378.761 96.5,379.5C 95.7326,380.172 95.0659,381.005 94.5,382C 95.4506,382.718 95.6172,383.551 95,384.5C 93.3335,383.66 93.1669,384.16 94.5,386C 91.2001,388.106 89.7001,390.939 90,394.5C 89.3333,393.167 88.6667,393.167 88,394.5C 85.4765,398.888 82.9765,403.222 80.5,407.5C 79.5,407.833 78.8333,408.5 78.5,409.5C 72.8697,415.772 67.5364,415.438 62.5,408.5C 65.2453,402.675 68.2453,397.008 71.5,391.5C 73.7453,391.459 74.4119,390.625 73.5,389C 75.7676,387.442 76.9343,385.276 77,382.5C 77.3333,382.833 77.6667,383.167 78,383.5C 80.1413,380.639 80.9746,377.639 80.5,374.5C 81.4959,374.586 82.3292,374.252 83,373.5C 84.4595,370.252 85.6262,366.919 86.5,363.5C 87.404,362.791 87.7373,361.791 87.5,360.5C 89.9526,354.059 92.1193,347.392 94,340.5C 95.4912,338.406 97.3245,336.739 99.5,335.5 Z"/></g>
<g><path style="opacity:.4" fill="#fefffe" d="M 177.5,336.5 C 178.833,337.167 178.833,337.167 177.5,336.5 Z"/></g>
<g><path style="opacity:.4" fill="#fefffe" d="M 347.5,338.5 C 347.833,338.5 348.167,338.5 348.5,338.5C 348.315,339.17 347.981,339.17 347.5,338.5 Z"/></g>
<g><path style="opacity:.4" fill="#fefffe" d="M 20.5,342.5 C 19.8333,343.167 19.8333,343.167 20.5,342.5 Z"/></g>
<g><path style="opacity:.4" fill="#fefffe" d="M 42.5,343.5 C 41.8333,342.167 41.8333,342.167 42.5,343.5 Z"/></g>
<g><path style="opacity:.4" fill="#fefffe" d="M 164.5,342.5 C 163.833,343.167 163.833,343.167 164.5,342.5 Z"/></g>
<g><path style="opacity:.4" fill="#fefffe" d="M 41.5,345.5 C 40.8333,344.167 40.8333,344.167 41.5,345.5 Z"/></g>
<g><path style="opacity:.4" fill="#fefffe" d="M 170.5,344.5 C 171.833,345.167 171.833,345.167 170.5,344.5 Z"/></g>
<g><path style="opacity:.4" fill="#fefffe" d="M 24.5,345.5 C 23.8333,346.167 23.8333,346.167 24.5,345.5 Z"/></g>
<g><path style="opacity:.4" fill="#fefffe" d="M 29.5,345.5 C 30.8333,346.167 30.8333,346.167 29.5,345.5 Z"/></g>
<g><path style="opacity:.4" fill="#fefffe" d="M 287.5,347.5 C 288.833,348.167 288.833,348.167 287.5,347.5 Z"/></g>
<g><path style="opacity:.4" fill="#fefffe" d="M 64.5,350.5 C 63.8333,349.167 63.8333,349.167 64.5,350.5 Z"/></g>
<g><path style="opacity:.4" fill="#fefffe" d="M 136.5,349.5 C 135.833,350.167 135.833,350.167 136.5,349.5 Z"/></g>
<g><path style="opacity:.4" fill="#fefffe" d="M 38.5,351.5 C 37.8333,350.167 37.8333,350.167 38.5,351.5 Z"/></g>
<g><path style="opacity:.4" fill="#fefffe" d="M 55.5,354.5 C 56.8333,355.167 56.8333,355.167 55.5,354.5 Z"/></g>
<g><path style="opacity:.4" fill="#fefffe" d="M 87.5,360.5 C 86.8333,359.167 86.8333,359.167 87.5,360.5 Z"/></g>
<g><path style="opacity:.4" fill="#fefffe" d="M 103.5,361.5 C 104.833,362.167 104.833,362.167 103.5,361.5 Z"/></g>
<g><path style="opacity:.4" fill="#fefffe" d="M 134.5,362.5 C 133.833,361.167 133.833,361.167 134.5,362.5 Z"/></g>
<g><path style="opacity:.4" fill="#fefffe" d="M 86.5,363.5 C 85.8333,362.167 85.8333,362.167 86.5,363.5 Z"/></g>
<g><path style="opacity:.4" fill="#fefffe" d="M 286.5,372.5 C 285.167,372.833 285.167,373.167 286.5,373.5C 282.805,396.663 278.138,419.663 272.5,442.5C 271.281,445.291 269.948,448.124 268.5,451C 265.986,452.252 263.32,452.752 260.5,452.5C 259.547,450.39 257.881,449.223 255.5,449C 258.081,437.832 260.748,427.332 263.5,417.5C 261.978,415.844 262.311,414.677 264.5,414C 264.167,413.667 263.833,413.333 263.5,413C 266.926,403.05 268.593,392.883 268.5,382.5C 268.846,381.304 269.346,381.304 270,382.5C 270.282,378.961 270.782,375.461 271.5,372C 271.874,363.624 276.208,360.957 284.5,364C 285.191,365.067 285.691,366.234 286,367.5C 286.333,367.167 286.667,366.833 287,366.5C 286.865,368.425 286.698,370.425 286.5,372.5 Z"/></g>
<g><path style="opacity:.4" fill="#fefffe" d="M 48.5,363.5 C 48.8333,363.5 49.1667,363.5 49.5,363.5C 49.3147,364.17 48.9813,364.17 48.5,363.5 Z"/></g>
<g><path style="opacity:.4" fill="#fefffe" d="M 166.5,392.5 C 164.655,393.995 164.322,395.662 165.5,397.5C 161.517,404.423 158.517,411.423 156.5,418.5C 155.259,421.45 153.926,424.45 152.5,427.5C 151.733,428.172 151.066,429.005 150.5,430C 151.451,430.718 151.617,431.551 151,432.5C 149.334,431.66 149.167,432.16 150.5,434C 148.381,434.342 148.047,435.175 149.5,436.5C 147.469,437.539 146.136,439.205 145.5,441.5C 144.375,442.348 144.375,443.348 145.5,444.5C 142.319,445.528 141.319,447.528 142.5,450.5C 140.632,449.326 139.632,449.993 139.5,452.5C 138.662,452.842 138.328,453.508 138.5,454.5C 135.847,457.689 132.347,459.356 128,459.5C 127.645,458.491 126.812,457.824 125.5,457.5C 125.672,456.508 125.338,455.842 124.5,455.5C 123.528,452.104 123.528,448.937 124.5,446C 126.514,444.317 128.18,442.317 129.5,440C 129.167,439.667 128.833,439.333 128.5,439C 132.308,435.223 134.975,430.723 136.5,425.5C 137.338,425.158 137.672,424.492 137.5,423.5C 146.23,406.154 152.73,387.82 157,368.5C 161.359,362.399 166.026,362.066 171,367.5C 171.496,372.208 171.162,376.875 170,381.5C 168.326,385.021 167.16,388.687 166.5,392.5 Z"/></g>
<g><path style="opacity:.4" fill="#fefffe" d="M 133.5,365.5 C 132.833,364.167 132.833,364.167 133.5,365.5 Z"/></g>
<g><path style="opacity:.4" fill="#fefffe" d="M 47.5,365.5 C 48.8333,366.167 48.8333,366.167 47.5,365.5 Z"/></g>
<g><path style="opacity:.4" fill="#fefffe" d="M 109.5,368.5 C 108.833,367.167 108.833,367.167 109.5,368.5 Z"/></g>
<g><path style="opacity:.4" fill="#fefffe" d="M 45.5,368.5 C 46.8333,369.167 46.8333,369.167 45.5,368.5 Z"/></g>
<g><path style="opacity:.4" fill="#fefffe" d="M 54.5,369.5 C 53.8333,368.167 53.8333,368.167 54.5,369.5 Z"/></g>
<g><path style="opacity:.4" fill="#fefffe" d="M 286.5,372.5 C 287.833,373.167 287.833,373.167 286.5,372.5 Z"/></g>
<g><path style="opacity:.4" fill="#fefffe" d="M 80.5,374.5 C 79.8333,373.167 79.8333,373.167 80.5,374.5 Z"/></g>
<g><path style="opacity:.4" fill="#fefffe" d="M 69.5,376.5 C 70.8333,377.167 70.8333,377.167 69.5,376.5 Z"/></g>
<g><path style="opacity:.4" fill="#fefffe" d="M 96.5,379.5 C 97.8333,380.167 97.8333,380.167 96.5,379.5 Z"/></g>
<g><path style="opacity:.4" fill="#fefffe" d="M 128.5,382.5 C 127.833,381.167 127.833,381.167 128.5,382.5 Z"/></g>
<g><path style="opacity:.4" fill="#fefffe" d="M 176.5,381.5 C 175.833,382.167 175.833,382.167 176.5,381.5 Z"/></g>
<g><path style="opacity:.4" fill="#fefffe" d="M 65.5,382.5 C 66.8333,383.167 66.8333,383.167 65.5,382.5 Z"/></g>
<g><path style="opacity:.4" fill="#fefffe" d="M 120.5,383.5 C 121.833,384.167 121.833,384.167 120.5,383.5 Z"/></g>
<g><path style="opacity:.4" fill="#fefffe" d="M 143.5,386.5 C 144.833,387.167 144.833,387.167 143.5,386.5 Z"/></g>
<g><path style="opacity:.4" fill="#fefffe" d="M 225.5,386.5 C 224.833,387.167 224.833,387.167 225.5,386.5 Z"/></g>
<g><path style="opacity:.4" fill="#fefffe" d="M 118.5,388.5 C 119.833,389.167 119.833,389.167 118.5,388.5 Z"/></g>
<g><path style="opacity:.4" fill="#fefffe" d="M 226.5,388.5 C 225.833,389.167 225.833,389.167 226.5,388.5 Z"/></g>
<g><path style="opacity:.4" fill="#fefffe" d="M 237.5,388.5 C 238.833,389.167 238.833,389.167 237.5,388.5 Z"/></g>
<g><path style="opacity:.4" fill="#fefffe" d="M 71.5,391.5 C 70.8333,390.167 70.8333,390.167 71.5,391.5 Z"/></g>
<g><path style="opacity:.4" fill="#fefffe" d="M 124.5,393.5 C 123.833,392.167 123.833,392.167 124.5,393.5 Z"/></g>
<g><path style="opacity:.4" fill="#fefffe" d="M 166.5,392.5 C 167.833,393.167 167.833,393.167 166.5,392.5 Z"/></g>
<g><path style="opacity:.4" fill="#fefffe" d="M 327.5,392.5 C 328.833,393.167 328.833,393.167 327.5,392.5 Z"/></g>
<g><path style="opacity:.4" fill="#fefffe" d="M 261.5,393.5 C 262.833,394.167 262.833,394.167 261.5,393.5 Z"/></g>
<g><path style="opacity:.4" fill="#fefffe" d="M 97.5,395.5 C 96.8333,394.167 96.8333,394.167 97.5,395.5 Z"/></g>
<g><path style="opacity:.4" fill="#fefffe" d="M 165.5,396.5 C 166.833,397.167 166.833,397.167 165.5,396.5 Z"/></g>
<g><path style="opacity:.4" fill="#fefffe" d="M 95.5,398.5 C 94.8333,397.167 94.8333,397.167 95.5,398.5 Z"/></g>
<g><path style="opacity:.4" fill="#fefffe" d="M 120.5,400.5 C 119.833,399.167 119.833,399.167 120.5,400.5 Z"/></g>
<g><path style="opacity:.4" fill="#fefffe" d="M 289.5,402.5 C 288.833,401.167 288.833,401.167 289.5,402.5 Z"/></g>
<g><path style="opacity:.4" fill="#fefffe" d="M 119.5,405.5 C 118.833,404.167 118.833,404.167 119.5,405.5 Z"/></g>
<g><path style="opacity:.4" fill="#fefffe" d="M 80.5,407.5 C 81.8333,408.167 81.8333,408.167 80.5,407.5 Z"/></g>
<g><path style="opacity:.4" fill="#fefffe" d="M 168.5,408.5 C 167.833,407.167 167.833,407.167 168.5,408.5 Z"/></g>
<g><path style="opacity:.4" fill="#fefffe" d="M 62.5,408.5 C 61.8333,409.167 61.8333,409.167 62.5,408.5 Z"/></g>
<g><path style="opacity:.4" fill="#fefffe" d="M 89.5,409.5 C 88.8333,408.167 88.8333,408.167 89.5,409.5 Z"/></g>
<g><path style="opacity:.4" fill="#fefffe" d="M 210.5,408.5 C 211.833,409.167 211.833,409.167 210.5,408.5 Z"/></g>
<g><path style="opacity:.4" fill="#fefffe" d="M 78.5,409.5 C 79.8333,410.167 79.8333,410.167 78.5,409.5 Z"/></g>
<g><path style="opacity:.4" fill="#fefffe" d="M 226.5,434.5 C 223.42,443.072 220.42,452.072 217.5,461.5C 215.253,466.589 212.253,470.589 208.5,473.5C 204.168,472.679 201.001,470.346 199,466.5C 198.735,464.837 199.235,463.337 200.5,462C 200.167,461.667 199.833,461.333 199.5,461C 203.122,455.255 205.789,449.088 207.5,442.5C 209.576,437.152 211.576,431.652 213.5,426C 213.265,425.127 212.931,424.293 212.5,423.5C 212.846,422.304 213.346,422.304 214,423.5C 215,420.167 216,416.833 217,413.5C 221.838,407.964 226.171,408.297 230,414.5C 230.667,416.833 230.667,419.167 230,421.5C 228.362,425.722 227.195,430.055 226.5,434.5 Z"/></g>
<g><path style="opacity:.4" fill="#fefffe" d="M 105.5,413.5 C 106.833,414.167 106.833,414.167 105.5,413.5 Z"/></g>
<g><path style="opacity:.4" fill="#fefffe" d="M 114.5,415.5 C 113.833,414.167 113.833,414.167 114.5,415.5 Z"/></g>
<g><path style="opacity:.4" fill="#fefffe" d="M 286.5,416.5 C 285.833,415.167 285.833,415.167 286.5,416.5 Z"/></g>
<g><path style="opacity:.4" fill="#fefffe" d="M 103.5,416.5 C 103.833,416.5 104.167,416.5 104.5,416.5C 104.315,417.17 103.981,417.17 103.5,416.5 Z"/></g>
<g><path style="opacity:.4" fill="#fefffe" d="M 113.5,417.5 C 112.833,416.167 112.833,416.167 113.5,417.5 Z"/></g>
<g><path style="opacity:.4" fill="#fefffe" d="M 102.5,418.5 C 103.833,419.167 103.833,419.167 102.5,418.5 Z"/></g>
<g><path style="opacity:.4" fill="#fefffe" d="M 156.5,418.5 C 157.833,419.167 157.833,419.167 156.5,418.5 Z"/></g>
<g><path style="opacity:.4" fill="#fefffe" d="M 207.5,418.5 C 208.833,419.167 208.833,419.167 207.5,418.5 Z"/></g>
<g><path style="opacity:.4" fill="#fefffe" d="M 137.5,423.5 C 136.833,422.167 136.833,422.167 137.5,423.5 Z"/></g>
<g><path style="opacity:.4" fill="#fefffe" d="M 109.5,424.5 C 108.833,423.167 108.833,423.167 109.5,424.5 Z"/></g>
<g><path style="opacity:.4" fill="#fefffe" d="M 136.5,425.5 C 135.833,424.167 135.833,424.167 136.5,425.5 Z"/></g>
<g><path style="opacity:.4" fill="#fefffe" d="M 178.5,425.5 C 179.833,426.167 179.833,426.167 178.5,425.5 Z"/></g>
<g><path style="opacity:.4" fill="#fefffe" d="M 286.5,425.5 C 285.833,426.167 285.833,426.167 286.5,425.5 Z"/></g>
<g><path style="opacity:.4" fill="#fefffe" d="M 152.5,427.5 C 153.833,428.167 153.833,428.167 152.5,427.5 Z"/></g>
<g><path style="opacity:.4" fill="#fefffe" d="M 288.5,427.5 C 287.833,428.167 287.833,428.167 288.5,427.5 Z"/></g>
<g><path style="opacity:.4" fill="#fefffe" d="M 82.5,428.5 C 81.8333,429.167 81.8333,429.167 82.5,428.5 Z"/></g>
<g><path style="opacity:.4" fill="#fefffe" d="M 122.5,433.5 C 123.833,434.167 123.833,434.167 122.5,433.5 Z"/></g>
<g><path style="opacity:.4" fill="#fefffe" d="M 202.5,433.5 C 203.833,434.167 203.833,434.167 202.5,433.5 Z"/></g>
<g><path style="opacity:.4" fill="#fefffe" d="M 226.5,434.5 C 227.833,435.167 227.833,435.167 226.5,434.5 Z"/></g>
<g><path style="opacity:.4" fill="#fefffe" d="M 149.5,436.5 C 150.833,437.167 150.833,437.167 149.5,436.5 Z"/></g>
<g><path style="opacity:.4" fill="#fefffe" d="M 120.5,437.5 C 121.833,438.167 121.833,438.167 120.5,437.5 Z"/></g>
<g><path style="opacity:.4" fill="#fefffe" d="M 182.5,441.5 C 181.833,440.167 181.833,440.167 182.5,441.5 Z"/></g>
<g><path style="opacity:.4" fill="#fefffe" d="M 199.5,440.5 C 200.833,441.167 200.833,441.167 199.5,440.5 Z"/></g>
<g><path style="opacity:.4" fill="#fefffe" d="M 117.5,441.5 C 118.833,442.167 118.833,442.167 117.5,441.5 Z"/></g>
<g><path style="opacity:.4" fill="#fefffe" d="M 145.5,441.5 C 146.833,442.167 146.833,442.167 145.5,441.5 Z"/></g>
<g><path style="opacity:.4" fill="#fefffe" d="M 207.5,442.5 C 206.833,441.167 206.833,441.167 207.5,442.5 Z"/></g>
<g><path style="opacity:.4" fill="#fefffe" d="M 272.5,442.5 C 273.833,443.167 273.833,443.167 272.5,442.5 Z"/></g>
<g><path style="opacity:.4" fill="#fefffe" d="M 116.5,443.5 C 117.833,444.167 117.833,444.167 116.5,443.5 Z"/></g>
<g><path style="opacity:.4" fill="#fefffe" d="M 115.5,444.5 C 115.833,444.5 116.167,444.5 116.5,444.5C 116.315,445.17 115.981,445.17 115.5,444.5 Z"/></g>
<g><path style="opacity:.4" fill="#fefffe" d="M 145.5,444.5 C 146.833,445.167 146.833,445.167 145.5,444.5 Z"/></g>
<g><path style="opacity:.4" fill="#fefffe" d="M 103.5,446.5 C 102.833,447.167 102.833,447.167 103.5,446.5 Z"/></g>
<g><path style="opacity:.4" fill="#fefffe" d="M 106.5,448.5 C 105.833,449.167 105.833,449.167 106.5,448.5 Z"/></g>
<g><path style="opacity:.4" fill="#fefffe" d="M 107.5,448.5 C 107.833,448.5 108.167,448.5 108.5,448.5C 108.315,449.17 107.981,449.17 107.5,448.5 Z"/></g>
<g><path style="opacity:.4" fill="#fefffe" d="M 142.5,450.5 C 143.833,451.167 143.833,451.167 142.5,450.5 Z"/></g>
<g><path style="opacity:.4" fill="#fefffe" d="M 139.5,452.5 C 140.833,453.167 140.833,453.167 139.5,452.5 Z"/></g>
<g><path style="opacity:.4" fill="#fefffe" d="M 260.5,452.5 C 259.833,453.167 259.833,453.167 260.5,452.5 Z"/></g>
<g><path style="opacity:.4" fill="#fefffe" d="M 138.5,454.5 C 139.833,455.167 139.833,455.167 138.5,454.5 Z"/></g>
<g><path style="opacity:.4" fill="#fefffe" d="M 175.5,455.5 C 174.833,454.167 174.833,454.167 175.5,455.5 Z"/></g>
<g><path style="opacity:.4" fill="#fefffe" d="M 124.5,455.5 C 123.833,456.167 123.833,456.167 124.5,455.5 Z"/></g>
<g><path style="opacity:.4" fill="#fefffe" d="M 125.5,457.5 C 124.833,458.167 124.833,458.167 125.5,457.5 Z"/></g>
<g><path style="opacity:.4" fill="#fefffe" d="M 173.5,458.5 C 172.833,457.167 172.833,457.167 173.5,458.5 Z"/></g>
<g><path style="opacity:.4" fill="#fefffe" d="M 191.5,458.5 C 192.833,459.167 192.833,459.167 191.5,458.5 Z"/></g>
<g><path style="opacity:.4" fill="#fefffe" d="M 217.5,461.5 C 218.833,462.167 218.833,462.167 217.5,461.5 Z"/></g>
<g><path style="opacity:.4" fill="#fefffe" d="M 230.5,463.5 C 229.833,464.167 229.833,464.167 230.5,463.5 Z"/></g>
<g><path style="opacity:.4" fill="#fefffe" d="M 157.5,468.5 C 158.833,469.167 158.833,469.167 157.5,468.5 Z"/></g>
<g><path style="opacity:.4" fill="#fefffe" d="M 172.5,470.5 C 171.833,471.167 171.833,471.167 172.5,470.5 Z"/></g>
</svg>
